<svg version="1" xmlns="http://www.w3.org/2000/svg" width="532" height="532" viewBox="0 0 399.000000 399.000000"><path d="M166.8 14.7c.6.2 1.8.2 2.5 0 .6-.3.1-.5-1.3-.5-1.4 0-1.9.2-1.2.5zM264.6 23.9c-.4.5.3.7 1.4.4 2.3-.6 2.6-1.3.6-1.3-.8 0-1.7.4-2 .9zM219.8 24.7c.7.3 1.6.2 1.9-.1.4-.3-.2-.6-1.3-.5-1.1 0-1.4.3-.6.6zM210.8 26.7c.7.3 1.6.2 1.9-.1.4-.3-.2-.6-1.3-.5-1.1 0-1.4.3-.6.6zM239.5 28c-1.3.6-.3.7 3.3.5 2.9-.1 5.6-.6 5.9-.9.9-.9-6.9-.6-9.2.4zM278.5 30c-1.3.6-1.5.9-.5.9.8 0 2.2-.4 3-.9 1.8-1.2.2-1.2-2.5 0zM217 32.2l-4.5 1.9 4-.6c2.2-.2 5-.5 6.1-.5 2.9 0 3.9-2.6 1-2.7-1.1 0-4.1.8-6.6 1.9zM190.1 34.9c-2.5 1.5-4.7 3.3-4.9 4-.3 1 0 1.1.9.5.8-.5 1.9-.9 2.5-1 1.2-.2 6.7-5.4 6.2-5.9-.2-.1-2.3 1-4.7 2.4zM187 34c-.9.6-1 1-.3 1 .6 0 1.5-.5 1.8-1 .8-1.2.4-1.2-1.5 0zM208.4 33.9c.4.5-.4.7-1.6.3-1.5-.4-1.9-.2-1.3.7.6 1 .2 1.1-1.6.6-2.3-.7-2.3-.7-.4.8 1.1.8 2.3 1.3 2.7 1.1.3-.2 1.8 0 3.3.6 1.8.7 3.2.7 4.3 0 1.4-.9 1.3-1-.5-.5-1.4.4-2.3.2-2.3-.4 0-.6.5-1.1 1.1-1.1.6 0 .4-.7-.5-1.5-1.6-1.6-4.1-2.1-3.2-.6zM261.8 34.3c-1.6.6-2.8 1.4-2.8 1.8 0 .4-1.5.4-3.2 0-1.8-.3-4.8-.5-6.7-.3-2.9.3-3.2.7-2.9 2.7.3 1.6.1 2.2-.8 1.8-.7-.2-1-1.1-.7-2 .5-1.3-.3-1.4-5.3-.7-7.8.9-12.7 2.6-5.6 1.9 2.9-.3 5.9-.8 6.7-1.1.8-.4 1.5-.1 1.5.4 0 .6-1 1.2-2.2 1.4-3.5.5-3.1 2.4.8 3.6 2.9.9 4.5.8 7.8-.3 6.9-2.5 8.5-1.5 4.6 2.8-1.1 1.2-1.8 2.7-1.5 3.5.2.7.1 1.1-.4.8-.5-.3-.8.5-.7 1.9.1 2.1.3 2.3 1.2 1 .6-.8 1.4-1.2 1.7-.8.4.3.2 1.2-.4 2-2 2.4.5 1.3 3-1.3 1.8-1.9 2.1-2.8 1.2-3.3-.9-.6-.8-1.1.4-2.1.8-.7 1.5-.9 1.5-.4s.5.2 1-.6 1-1 1-.4 1.1 1.1 2.5 1.1c1.8 0 2.5-.5 2.6-2.1.1-1.5.2-1.7.6-.4.4 1.7 3.2 3.2 4.2 2.2.3-.3-.2-1-1.2-1.5-2.4-1.4-2.1-2.7.6-3.2 1.6-.3 1.3-.5-1-.6-1.8 0-3.3-.5-3.3-1.1 0-.5-1.1-1.2-2.5-1.6-1.4-.3-2.5-1-2.5-1.6 0-.5.8-.7 1.8-.4 7.2 2 10.6 2.7 15.7 3.2 3.1.3 3.6.1 2.5-.7-1.2-.9-1.1-1 .8-.6 2.6.6 2.8.1.5-2.1-1.2-1.3-3.4-1.6-9.2-1.6-4.1.1-6.7-.2-5.6-.6 1.7-.6 1.7-.7.1-1.3-2.1-.8-2.3-.8-5.8.6zm-5.6 13.6c-.7.4-1 1.5-.6 2.6.5 1.3.3 1.6-.7 1.3-1.9-.6-1.8-4.1.1-4.9 1.9-.8 2.8 0 1.2 1zM225.8 34.7c.7.3 1.6.2 1.9-.1.4-.3-.2-.6-1.3-.5-1.1 0-1.4.3-.6.6zM218 36.1c0 .5.5.7 1 .4.6-.3 1-.8 1-1.1 0-.2-.4-.4-1-.4-.5 0-1 .5-1 1.1zM156.9 37.7c-1.3 1.6-1.2 1.7.4.4.9-.7 1.7-1.5 1.7-1.7 0-.8-.8-.3-2.1 1.3zM182.7 38c-.3 1.1 0 2.3.6 2.7.7.3.9.3.5-.2-.4-.4-.3-1.6.3-2.6.5-1.1.6-1.9.1-1.9-.6 0-1.2.9-1.5 2z"/><path d="M198.8 36.9c1.1.7 1 .9-.3 1.5-.9.3-1.4 1-1.1 1.5.9 1.4-.4 3.9-2.2 4.4-1.2.3-1.1.5.5.6 1.2 0 2.9-.6 3.8-1.5.8-.9 2.2-1.3 3-1 1.8.6.9 3.6-1.1 3.6-.8 0-1.7.6-2 1.3-.3.8-1 1.4-1.7 1.5-1.1.1-4.6.8-5.7 1.2-.3.1.6.6 2 1 2.3.7 2.2.8-1 .9-2.6.1-3.1.4-2 1.1 2.2 1.4 3.4 1.2 6-1 2.2-1.9 4-2.5 6.9-2 .9.1 1.2-.4.7-1.5-.4-1.2-.2-1.6.8-1.2.9.4 1.7-.1 2.1-1.2.3-1.1 1.6-2.2 2.8-2.6 2.1-.6 2.1-.7-.8-1.7-4-1.4-4.2-1.7-2.5-2.9 1.3-.9 1.3-1 0-.6-.8.2-3-.2-4.9-.9-3.8-1.6-5.3-1.8-3.3-.5zM128.7 40.1c.7.7 1.5 1 1.8.7.3-.3-.2-.9-1.2-1.2-1.4-.6-1.5-.5-.6.5zM171.9 40.7c-1.3 1.5-1.2 1.5.9.4 2.3-1.2 2.8-2.1 1.3-2.1-.5 0-1.5.7-2.2 1.7z"/><path d="M210.5 40.6c2.2 1.6 3.5 1.8 3.5.5 0-.5-1.2-1.1-2.7-1.4-2.6-.5-2.6-.4-.8.9zM146 42.5c-1.9 1.4-2.9 2.5-2.3 2.5 1.2 0 7.3-4.9 6.2-5-.3 0-2 1.1-3.9 2.5zM152.5 41c-.3.6.1.7.9.4 1.8-.7 2.1-1.4.7-1.4-.6 0-1.3.4-1.6 1zM179.5 41c-.3.5-.1 1 .4 1 .6 0 1.1-.5 1.1-1 0-.6-.2-1-.4-1-.3 0-.8.4-1.1 1zM194.5 41c-.3.5-.1 1 .4 1 .6 0 1.1-.5 1.1-1 0-.6-.2-1-.4-1-.3 0-.8.4-1.1 1zM191 41.9c0 .5.5 1.3 1 1.6.6.3 1 .2 1-.4 0-.5-.4-1.3-1-1.6-.5-.3-1-.2-1 .4zM221.2 42.7c-4.8 2.3-3.2 2.7 1.9.4 2.4-1.1 3.7-2 2.9-2-.8 0-3 .7-4.8 1.6zM158.4 42.8c-1.6 1-3.6 5.2-2.6 5.2.5 0 2.1-1.4 3.5-3 2.5-2.7 1.9-4.1-.9-2.2zM273 43.5c0 1-.5 1.4-1.2 1-.7-.4-.2.3 1.1 1.5 1.3 1.1 3 1.9 3.7 1.6.8-.3 1.8.4 2.4 1.4.6 1.1 1.5 2 2 2 .8 0 2.6-3.9 2.3-5.1-.4-1.3 6.6-.7 7.7.6 1 1.2 1 1.5 0 1.5-.8 0-1.1.3-.7.6.3.3 1.2.2 1.9-.2.7-.5 1.8-.9 2.3-1 .6 0 1.6-.2 2.3-.2.6-.1 1.2-.6 1.2-1.1 0-.5-1.2-.8-2.7-.6-1.6.2-3.5-.1-4.3-.5-.8-.4-4.9-1.1-8.9-1.4-4.1-.4-7.9-.9-8.3-1.2-.4-.3-.8.2-.8 1.1zM165.5 47.7c-5.6 6.3-5.7 7.8-.1 1.8 2.5-2.7 4.5-5.2 4.4-5.6-.2-.4-2.1 1.3-4.3 3.8z"/><path d="M229.6 43.9c.7.7-8.8 4.1-11.4 4.1-1.3 0-3.9.7-5.8 1.6-1.9.9-3.8 1.4-4.1 1-.3-.3.1-.6 1-.6s1.7-.5 1.7-1c0-.6.7-1 1.5-1s1.5-.4 1.5-1c0-1.3-3-.1-5.7 2.2-1.2 1.1-3.8 2.1-5.8 2.3-2 .2-4 .7-4.4 1.1-.3.4.2.4 1.2.1 1.1-.4 1.6-.3 1.2.3-.3.6-1.1 1-1.6 1-.6 0-1.7.7-2.5 1.5-.9.8-2.1 1.5-2.7 1.5-.7 0-.6-.4.3-1 1.3-.8 1.2-1-.5-1.1-1.1-.1-3.7-.1-5.7 0-2.9.2-3.8-.1-3.8-1.3 0-.9.5-1.6 1.1-1.6.5 0 .7.4.4 1-.9 1.4.8 1.3 2.3-.2 1.9-1.9 1.4-2.3-3.5-2.4-2.9-.1-5.2.4-6.1 1.3-.8.8-1.7 1.1-2 .8-.4-.3 0-1 .8-1.5 1.1-.7 1.1-1 .2-1-.7 0-2.1 1.3-3 3-1.9 3.3-3.9 4.2-2.2 1 .9-1.7.8-2-1.2-1.7-2.4.2-6.5 4.3-5.4 5.4.3.4.6.2.6-.4 0-1.8 8.6-.4 18.4 2.9 8.6 2.8 14.5 3.1 13 .7-.3-.6.6-.3 2.2.7 1.5 1.1 2.5 1.3 2.1.6-.5-.6-.4-1.2 0-1.2.5 0 1.5.6 2.2 1.2.9.9.8.2-.3-1.9-.9-1.8-1.6-3.4-1.6-3.6 0-.2 3-.7 6.7-1 3.8-.4 6.9-1.1 7.1-1.7.2-.5.8-1 1.4-1 .7 0 .6.5-.1 1.4-1 1.1-.7 1.4 1.4 1.2 1.4 0 2.5-.4 2.5-.9 0-.4.5-.7 1.1-.7.6 0 3-1.4 5.4-3 4.9-3.4 5.2-3.5 5.7-1.7.2 1 .8 1 2.8-.1 2.4-1.3 2.4-1.3.2-.9-1.5.4-2.2.1-1.9-.6.2-.7 1.6-1.3 3-1.5 3.3-.4 3.6-2.1.5-2.4-5.2-.4-8.7-.3-8.2.1zm-23.9 10.7c-.3.3-1.2.4-1.9.1-.8-.3-.5-.6.6-.6 1.1-.1 1.7.2 1.3.5zM187.8 58c-.7 1-1.4 1.8-1.5 1.6-.6-.6.9-3.6 1.8-3.6.5 0 .4.9-.3 2zm12.4 2.2c-.7.7-1.2.8-1.2.2 0-1.4 1.2-2.6 1.9-1.9.2.3-.1 1.1-.7 1.7zM153 47.1c-.7 1.1-1 2.3-.7 2.5.2.2.9-.7 1.5-2.1 1.4-3 .7-3.3-.8-.4z"/><path d="M161.3 47.2c-2.3 2.6-3.5 6.5-2.2 7.3 1.2.8-.1 3.7-2.7 6-2.5 2.2-5.9 9.5-4.3 9.5.5 0 .9.5.9 1.1 0 .5-.4.7-1 .4-.6-.4-1 .5-1 1.9s-.4 2.6-.9 2.6c-.6 0-.8-.9-.6-2 .4-2.2-1-3.6-2-2-.9 1.4-10.7 6.1-11.3 5.5-.3-.3-.1-.5.5-.5 1.6 0 6.8-5.3 8.1-8.3.6-1.5 1.9-3 2.7-3.3.8-.4 1.5-1.4 1.4-2.3 0-1-.2-1.1-.6-.3-.2.6-1 .9-1.5.6-.7-.4-.8-.2-.4.5.6.8.1 1-1.6.6-1.6-.4-3 .1-4.7 1.6-1.8 1.7-2.5 1.9-3.1.9-.6-1-1.4-.7-3.2 1.2-2.6 2.8-6 4.4-5.2 2.5.4-1.3 1.1-1.7 8-5.2 2.1-1.1 4.5-2.6 5.2-3.2.7-.7 2.3-1.5 3.5-1.9 2.4-.6 6.9-6.2 6.1-7.6-.3-.4-1.5-.8-2.6-.8-2.5 0-10.8 3.8-10.8 4.9 0 .5-2.4 2.8-5.4 5.1-3 2.4-5.3 4.7-5 5.2.3.4-.2.5-1.1.2-.9-.4-1.5-.2-1.3.4.2.5-.8 1.9-2.1 3.1-2.8 2.5-2.2 4 .8 1.9 1.2-.8 1.8-1.7 1.6-2-.3-.3.1-.8.9-1.1 1.1-.4 1.2 0 .7 2.1-.7 2.5-2.9 4.2-7.6 5.8-1.2.4-1.5.8-.8 1.1 1 .3 1 .7 0 1.8-.9 1-1.5 1-2.6.1-1.2-.8-1.3-.8-.7.1.4.8.1 1.3-.8 1.3s-1.6.7-1.6 1.6c0 .8-.4 1.2-1 .9-.5-.3-1-.1-1 .5 0 .8 1 1 2.8.6 2.6-.6 2.6-.6.7.9-1.1.9-2 2-2 2.6 0 .5-.6 1.4-1.4 1.8-.7.5-1.1 1.3-.7 1.9.3.6-.4 1.2-1.6 1.4-1.3.2-2.2.9-2 1.6.1.8-.2 1-.8.7-1.2-.7-6 3.1-6 4.7 0 .4.9.8 2 .8 1.7 0 1.9.3 1.1 1.9-.7 1.2-2.6 2.1-5.5 2.5-3.3.5-4.6 1.2-5.1 2.9-1 3.2-1.2 3.9-1.3 6.5-.1 1.3-.6 2.1-1.1 1.7-.6-.3-1.5.4-2.1 1.6-1.1 1.9-1 2 1.1 1.4 1.9-.6 2-.5.8.8-.8.8-1.6 1.5-1.9 1.5-1.9-.1-2.3.4-1 1.2.8.5 1.2 1.1.9 1.4-.3.3-1.4 0-2.4-.8-1.3-.9-1.6-1.9-1-3.2.4-1 .9-2.4 1-2.9.2-.6 1-3.9 2-7.5.9-3.6 1.9-7.7 2.2-9.2.3-1.4 1.3-2.8 2.4-3.1 1.3-.3 1.7-1.1 1.3-2.1-.4-1.2-.2-1.5.9-1 1 .3 1.8-.2 2.2-1.6.4-1.3 1.2-1.9 2.1-1.6.8.3 1.2.2.9-.3-.6-1.2 1.5-6.1 2.7-6.1.4 0 .8-.5.8-1 0-1.6-3-1.2-3.6.5-.4.8-1.1 1.5-1.6 1.5-.6 0-.7-.7-.4-1.6.4-1 .1-1.4-.6-1.2-.7.3-1.5 1.3-1.6 2.3-.2 1 0 1.5.6 1.1.6-.3 1.4-.1 1.7.5.7 1.1-2.7 4.9-4.3 4.9-.6 0-1.2.9-1.5 2.1-.3 1.2-1 1.8-1.5 1.5-.5-.3-1.2.4-1.5 1.7-1 4.2-5.6 15.2-5.6 13.5-.1-.9-.9-2.4-1.8-3.3-1.5-1.6-1.8-1.4-4 2.2-1.2 2.1-2.3 4.8-2.3 6 0 1.3-.6 2.3-1.2 2.4-.7 0-.4.4.7.9s1.5.9.8.9c-1.3.1-1 5.9.8 16.3.6 3.7.7 6.4.1 7.5-.8 1.3-1.3.7-2.8-3.5-1-2.9-2.2-5.2-2.6-5.2-.5 0-.8-.7-.8-1.5 0-1.9-1.9-2-2.6-.1-.3.8-1.3 1.2-2.2 1-1.4-.5-1.4-.3.2 1 1.7 1.4 1.7 1.6-.8 4.3-1.4 1.5-2.6 3.3-2.6 4 0 .7-.4 1.3-1 1.3-1.5 0-4.5 3.3-4.5 4.9 0 .8-.8 1.9-1.8 2.5-1.4.8-2 .8-2.7-.4-.8-1.3-1-1.2-1 .3 0 1-.4 1.5-1 1.2-1.5-.9-1.2 1.2.4 2.8 1.1 1.1 1.2 1.7.3 2.6-.9 1-.7 1.7 1.1 3.1 1.2 1 2.6 2 3.1 2.2.5.2 1.1 1.4 1.5 2.8.6 1.9.5 2.1-.3 1s-1-.1-.8 3.7c.1 3.8-.2 5.3-1.1 5.3-.7 0-1-.5-.6-1.2.5-.8 0-.9-1.7-.5-2.3.6-2.3.5-.5-.8 1.7-1.3 1.8-1.5.3-1.5-.9 0-1.7.5-1.7 1.1 0 .5-.6.7-1.2.3-.7-.4 0 .7 1.6 2.4 1.8 1.9 4 3.2 5.4 3.2 2.1 0 2.2.2 1.2 1.5-1 1.2-1 1.5.3 1.5 1.1 0 1.4.5 1 1.6-.5 1.4-.2 1.6 2 1 1.6-.4 2.7-.2 2.7.4 0 .5-.8 1-1.7 1-1.6.1-1.6.2.2 1.6 1.7 1.3 1.8 1.6.5 2.4-1.3.9-1.3 1.1 0 2 1.3.9 1.3 1.1.1 1.9-1.2.8-1.2 1.2.2 2.6 1.9 1.9 2.1 3.1.7 4-.5.3.2 1.7 1.7 3.1 1.4 1.3 2.1 2.4 1.4 2.4-.6 0-1.1 1-1.1 2.2 0 1.3-.3 1.8-.8 1.2-.4-.6-1.9-1.4-3.4-1.7-1.4-.4-3.4-1-4.3-1.4-1.6-.6-1.6-.4 0 2 .9 1.5 2.4 2.7 3.3 2.7.8 0 1.3.3 1 .6-.7.7 3.1 6.6 7.3 11.1 3.2 3.5 3.8 5.6 1.4 4.7-2.6-1-1.6.5 1.3 2 2.4 1.2 2.8 2 2.4 4.4-.4 2.8-.2 3 4 3.7 2.3.4 4.9 1.2 5.5 1.7.7.6 1.3.8 1.3.4s1.3 0 3 .9c3.1 1.6 4.4 5.2 1.4 4.1-.8-.3-1.2-.2-.9.4.4.6-.5 1-2 1s-2.4-.4-2-1c.3-.6-.1-.7-.9-.4-.9.3-1.6.2-1.6-.4 0-.6.6-1.3 1.3-1.5.9-.4.9-.6-.1-.6-.7-.1-2 .5-2.7 1.3-1.3 1.2-.9 1.7 2.8 3.5 2.3 1.2 3.5 2.1 2.7 2.2-.8.1-.4.4.9.8 1.4.4 2.7 1.3 2.9 2.1.5 1.3.3 1.3-1.3 0-1-.8-1.6-1-1.2-.4.4.8-.2 1.1-1.8 1-1.4 0-2.5-.7-2.5-1.4 0-1.4-1.6-1.6-2.5-.2-1 1.7-2.5 1.1-3.5-1.3-.5-1.2-.9-1.5-.9-.7-.1 2.8 2.3 4.5 6.2 4.3 3.4-.1 3.6 0 2 1.3-1.5 1.1-1.5 1.3-.3 1.4.9 0 2.2-.6 2.9-1.3 1.1-1 1.3-.9.8.5-.6 1.8.2 2.3 3.2 1.9.7-.2 1 .2.6.8-.4.7-2.2.9-4.7.4-3-.4-3.9-.3-3.4.6.4.6 1.3 1.1 1.9 1 2.3-.3 4 .1 3.4.8-.4.3-.2 1.2.5 2 .9 1.1.7 1.2-.8.7-1.6-.6-1.6-.4.2.9 1.2.9 4 1.9 6.3 2.3 2.5.4 4.1 1.2 4.1 2s-.7 1.4-1.5 1.4-1.5.5-1.5 1.1c0 .6.9.8 2.1.4 1.5-.5 1.9-.4 1.5.4-1.2 1.9-4.6 1.2-5.6-1.2-.5-1.2-.9-1.7-.9-1-.2 3.1 1.2 4.3 5 4.3 2.7 0 3.9.4 3.9 1.4 0 .7.9 1.6 2 1.9 1.1.3 2 .1 2-.5 0-.5.5-.6 1.2-.2.8.5.9-.3.5-2.9-.8-4.9 1-4.8 1.9 0 .4 2.1 1.1 4 1.5 4.3.5.3 1 1.6 1.2 2.8.2 1.2.6 2.5 1 2.8.4.4.7 1.7.7 2.9 0 1.3.6 2.8 1.4 3.4.7.6 2.3 4.5 3.5 8.6 1.3 4.1 3.8 9.8 5.7 12.5 1.9 2.7 3.4 5.4 3.4 5.9 0 .6.8 1.5 1.8 2.1 1.1.7 1.3 1.3.6 1.6-.8.3-.6 1.7.7 4.4 1.1 2.1 1.9 4.7 1.9 5.7 0 1.5.2 1.6 1 .3.8-1.2 1-1.1 1 .7 0 1.7.4 2.1 1.7 1.6 1.1-.4 1.4-.3.9.5-.4.8-.2 1 .7.6 1-.3 2 .8 3.1 3.5.9 2.3 2 4.1 2.5 4.1 1.8 0 6.3 4.9 5.6 6-.4.7.2 1.4 1.4 1.7 2.3.6 2.8 1.9.9 2.6-.8.3-.6.6.5.6 1 .1 2.8-.6 4.1-1.4 2-1.3 2.4-1.4 2.9-.1.3.7 2.8 2 5.6 2.7 3.4.8 5.3 1.9 5.7 3.2.4 1.2 1.1 1.6 2.2 1.2 3.5-1.5 4.7-1 5 1.7.3 2.6 2.2 4.1 2.2 1.8 0-.6.5-1 1-1 .6 0 1 .9 1 2.1 0 1.4.5 1.9 1.5 1.6.8-.4 1.7-.2 2.1.4.4.7 1.2.5 2.2-.5 1.5-1.3 2-1.3 3.6 0 1.1.8 1.6 1.4 1 1.5-.5 0 .2.4 1.4 1 1.3.5 2.6 1.8 2.9 2.9.5 1.9 2.2 2.4 6.8 2.1 1.4-.1 1.6.1.7.7-.8.6-.2 1.3 2.4 2.5 3.4 1.7 3.6 1.9 2.9 5.5-.4 2-1.1 4.2-1.6 4.8-.9 1.1 1.7 2.9 5.6 3.7 1.2.3.7.5-1.2.6-1.8 0-3.3-.4-3.3-.9 0-.6-.8-.5-2 .2-1.2.8-1.8 1.9-1.5 2.9.4 1.1-.2 1.8-1.6 2.2-1.1.3-1.8 1-1.4 1.6 1 1.7 55.5 1.5 55.5-.2 0-.9.3-.9.9.1 1.5 2.4 4.5 1 4.8-2.1.2-2.3-.1-2.7-1.5-2.2-.9.3-1.3.3-.9-.1s.2-1.3-.3-1.9c-.7-.9-.6-1.6.4-2.4 1-.8 1.6-.9 2.1-.1.3.5.1 1-.5 1s-.8.5-.4 1.1c.4.8.9.7 1.5-.2 1.2-2-.9-4.1-3.1-2.9-2.8 1.5-4.5-1.2-1.8-2.9 1.7-1.1 1.8-1.5.7-2.2-1-.7-.7-.8 1.1-.7 1.8.2 2.5-.2 2.4-1.4-.1-1.1.4-1.5 1.5-1.1 1.4.6 1.3.3-.2-1.4-1.7-2-1.7-2.1 0-3.8 1.1-1.1 1.8-1.4 2.1-.6.2.6 1.1 1.1 2 1 1.1 0 1.2-.2.5-.6-2.1-.8-1.5-2.6.7-2 2.1.5 2.8-.7 1-1.8-1.5-.9-1.2-2.5.5-2.5.8 0 1.5-.6 1.5-1.4 0-.8.5-1.6 1-1.8.6-.2 1.2-1.3 1.2-2.4.2-2 2.8-5.4 2.8-3.6 0 .5 1 2 2.3 3.4 1.2 1.4 3.1 3.6 4.2 5 2.9 3.6 7.5 6.4 7.5 4.7 0-1.1.2-1.1 1 .1.8 1.2 1 1.2 1.1-.5 0-1.1.3-1.4.6-.8.2.7 1.4 1.3 2.6 1.3 1.8 0 1.9-.2.7-1s-.9-1 1.3-1c1.8 0 2.7.5 2.7 1.6 0 1.4.1 1.4 1.6 0 .8-.9 2.1-1.6 2.7-1.6.8 0 .7.3-.2.9-1.9 1.2-.3 3.3 2 2.6 1.1-.4 2.8-.1 3.7.7 1.5 1.1 1.5 1.1.5-.3-.7-.9-.9-2-.5-2.4.4-.5-.2-.5-1.3-.1-4.1 1.6-4.9 1.7-2.7.4 1.2-.8 1.9-1.8 1.5-2.2-.4-.4.1-1.4 1.1-2.2 2.3-1.7 1.3-1.9-1.6-.3-1.5.8-1.9.8-1.4 0 .4-.6.3-1.1-.1-1.1-.5 0-1.3-1-1.8-2.3-.6-1.2-2.5-2.7-4.3-3.3-1.8-.5-2.9-1.4-2.5-1.8.4-.4 0-.4-1 0s-1.7.1-1.7-.6-.7-1-1.5-.7c-.8.4-1.7.2-2-.3-.4-.6-1.4-1-2.5-1-1 0-2.1-.8-2.4-1.7-.5-1.2-.9-1.4-1.4-.6-.5.8-1.5.6-3.2-.9-1.4-1.1-1.9-1.7-1.2-1.3.6.3 1.2.1 1.2-.4 0-.6-.5-1.1-1-1.1-.6 0-.9-.5-.8-1.1.2-.6-1.4-2.1-3.6-3.3-3.9-2.3-6.7-5.6-4.6-5.6.5 0 1 .7 1 1.6 0 1.4.3 1.4 1.5.4 1.3-1.1 1.8-1 2.8.2.7.9 2.1 2 3.2 2.6 1.4.8 1.6 1.2.5 1.2-1 .1-.9.4.4.9 2.6 1 5.5-1.6 11.4-9.9 2.5-3.6 6.3-8.8 8.4-11.6 2.1-2.8 3.8-5.8 3.8-6.7 0-1 .5-1.7 1-1.7.6 0 1-.6 1-1.3 0-.7 1.3-3.9 3-7.1 3.2-6.4 3.2-11.5-.2-12.3-2.1-.6-2.2-1.9-1.9-14.3.2-5.8 0-8.2-.7-7.5-.6.5-1.2 2.8-1.5 5-.4 3.9-.4 3.9-.5-.8-.1-2.7-.6-4.6-1-4.3-.9.6-2.4-1.9-4.2-6.8-.6-1.8-1.5-2.6-2.4-2.3-.8.3-1.6-.2-1.9-1.4-.5-1.8-.9-1.9-2.7-.9-1.5.8-2.5.8-3.4.1-.7-.6-1.6-.8-2-.4-.4.4-.4 0 0-1 .4-1.2.1-1.7-1-1.7-.9 0-1.6-.8-1.7-1.8 0-1.2-.3-1-1 .7s-.6 2.7.2 3.2.6.9-.7 1.2c-1.1.3-.5.5 1.6.7 1.9.1 2.9.4 2.2.7-1 .4-1 .9.3 2.3 1.1 1.2 1.3 2 .6 2.5-1.6.9-1.3 2.5.4 2.5.8 0 1.5.6 1.5 1.3 0 .7 1.4 2.6 3 4.2 2.2 2.1 2.7 3.1 1.8 3.7-2.1 1.3-4.8.9-4.8-.7 0-.8-.9-1.5-1.9-1.5-1.1 0-2.3-.5-2.6-1-.9-1.5-2.5-1.2-2.5.5 0 1.3-.3 1.3-2 .3-1.1-.7-2-2.1-2-3.1s-1.1-2.8-2.5-4.1c-2.7-2.5-3.3-5.6-1.1-5.6.8 0 1.6-.7 1.9-1.4.7-1.9-3.1-3.2-4.6-1.7-1.5 1.5-4.8 1.3-7.2-.5-1.7-1.3-1.8-1.6-.5-2.4 1.2-.7 1.2-1.2.2-2.2-.9-.9-1.2-.9-1.2.1s-.6.9-2.5-.3c-3.3-2.2-5.2-2-6 .5-.4 1.2-1.2 1.8-2.1 1.5-.7-.3-1.6-.1-1.9.3-.2.5-2.1-.7-4.1-2.5-3.3-3.2-4-3.4-10.7-3.5-4-.1-7.8-.1-8.5 0-1.9.3-4.2-1.8-4.2-3.9 0-3 3-8 6.6-10.8 3.7-2.9 8.9-10 8-11-.3-.3.3-1.1 1.4-1.9 1.1-.8 2-2 2-2.7 0-.8.7-2 1.6-2.7 1.8-1.5 7.6-10.4 8.7-13.2.4-1 1.1-1.6 1.6-1.3.5.3 1.4-.1 2.1-.9.7-.8 1.9-1.5 2.7-1.5 1.1 0 1.4-.7 1.1-2.5-.4-1.8-.1-2.5 1-2.5.8 0 1.3-.2 1-.5-.3-.4-1.8-.3-3.2.1-2.5.6-2.5.7-.9 2 1.2.9 1.4 1.3.5 1.4-1.9 0-5.2-1.9-5.2-3.1 0-.6.4-.8.9-.4 1.4.8 8.1-2.6 7.4-3.8-.3-.5.6-.7 2.3-.3 1.6.3 4.6.8 6.7 1.2 2 .3 3.8.9 3.8 1.3.6 2.9.5 5.8-.2 6.6-.4.6-.4 1.7.1 2.5.6.8 1 2.2 1 3-.1 1.2-.3 1.2-1.4-.3-.7-.9-1.9-1.7-2.6-1.7-1 0-1 .3-.1 1.4.7.8 1.4 3.4 1.7 5.7.6 4.9 1.4 6.4 1.4 2.8.1-2.3.2-2.2 1.4.6.7 1.6 2 6.1 3 10 .9 3.8 2.4 8.1 3.3 9.4 3.4 5.2 19.8 10.2 32.8 10 5.8-.2 5.7-.2-2.4-1-9.3-.9-20.9-4.1-25.8-7-3.7-2.3-5.1-5.8-6-15.1-.4-4.8-.3-6.8.6-6.8.6 0 1.1.8 1.1 1.8 0 1.1 1.2 2.4 2.8 3.1 1.5.8 3.4 1.7 4.2 2 .8.4 1.9 1.7 2.5 2.9 1.3 3 2.3 2.8 1.7-.3-.5-2.6 1.2-3.5 2.1-1.1.8 2 5.5 2.6 6.9.9.9-1.1.9-1.6-.3-2.4-1.2-.7-1.2-.9 0-.9 3.1 0-.2-1.4-3.4-1.5-1.9 0-3.5-.3-3.5-.8 0-5.9-.1-5.7 3.8-5.7 4.1 0 5.5-1.4 6.7-6.8.8-3.7 0-4.1-2.4-1-1.3 1.5-2.3 1.9-3.7 1.4-1.8-.7-1.8-.8-.1-1.7 2.7-1.6 1-3-3.3-2.7-2.1.1-4.8-.5-6.1-1.3-1.3-.8-3.4-1.4-4.6-1.3-1.6.1-2.3-.4-2.3-1.7 0-2.1-1.5-2.5-2.4-.7-.3.7-.3.2 0-1.2 1.2-4.9 2.5-5.2 21.2-4.5 12.5.4 19.4 1.2 25 2.6 4.2 1.1 8.6 2.2 9.7 2.4 1 .3 4.3 1.6 7.2 3 4.4 2.2 5.3 3.1 5.9 5.9.8 4.8-1.9 14.6-7 25.1-4.3 8.8-5.1 11.8-2.1 7.9 1.9-2.4 10.5-19.7 10.5-21.1 0-.6.8-2.1 1.8-3.4 1.1-1.3 2.2-3.8 2.5-5.5.5-2.6.1-3.6-2.6-6.2-1.8-1.6-5.6-4-8.5-5.2-5.6-2.4-6.3-4.1-2.8-7.3 1.5-1.3 2.1-1.5 2.8-.5.6 1 .8 1 .8 0 0-.6.3-1.1.8-1.1 1.8.3 2.4-.2 1.4-1.4-.7-.8-.6-1.9.3-3.7.8-1.4 1.4-1.9 1.5-1.1 0 .8.3 1.1.7.7.4-.4.6-2.3.4-4.2-.2-2.4.2-3.6 1.4-4 1-.4 1.3-1.3 1-2.5-.5-1.3-.1-1.9 1-1.9s1.5-.5 1.1-1.5c-.3-.9 0-1.5 1-1.5 1.2 0 1.5.7 1.2 3-.6 4 .8 2.4 1.6-1.8.5-3 .4-3.3-1.4-2.7-1.8.6-1.9.4-1.1-1.7 2.4-6.4 3.1-10.1 3.1-16.7 0-5.4-.4-7.3-1.5-7.7-.8-.4-1.5-1.3-1.5-2 0-.8-.7-1.7-1.5-2-.8-.4-1.5-1.7-1.5-2.9 0-1.3-.5-2.5-1.2-2.7-.7-.3-.8-1-.4-1.7.7-1.1 1-1.1 1.7 0 1.5 2.4 1-.7-.6-3.7-1.4-2.7-1.5-2.7-1.5-.7 0 1.3-.4 2.3-.8 2.3-1.1 0-.2-6.1 1.1-8 .6-.8.8-1.2.3-.8-1.1.9-3.6-1.6-3.6-3.6s-2.1-6.6-3-6.6c-.8 0-2.3-3.9-2.1-5.6.1-.5-.7-1.9-1.7-3s-1.6-2.6-1.4-3.3c.3-.8 0-1.1-.7-.7-.7.5-.9.1-.5-.8.3-.9 1-1.6 1.5-1.6s.9-.5.9-1c0-1.4-2.7-1.2-3.4.2-.3.7-.3.3 0-1 .4-1.5.1-2.2-1-2.2-.8 0-1.6.8-1.8 1.7-.2 1-.4-.6-.4-3.5.1-3.6-.4-5.6-1.4-6.2-1.1-.7-1.7-.4-2.2.8-.6 1.5-.7 1.5-.7.1-.1-.9-.9-1.9-2-2.2-1.7-.4-1.8 0-1.3 3.7.3 2.2 1.2 4.7 2.1 5.4.9.8 1 1.1.3.7-.7-.4-2-.1-2.9.7-1.4 1.1-1.6 1.1-1.1-.4.4-.9-.1-2.3-1.2-3.3-1-.9-1.6-2.3-1.3-3 .2-.8-.5-2.4-1.6-3.6-1.2-1.3-2.1-2.7-2.1-3.2s-.6-.7-1.3-.4c-.8.3-1.4-.4-1.5-2-.3-3.4-1-4.3-3.3-4.3-1 0-1.9-.5-1.9-1.1 0-.5-.4-.7-1-.4-.5.3-1-.2-1.1-1.2 0-1-.3-1.3-.5-.6-.3.7-1.2.9-2 .6-.8-.3-1.4.1-1.4 1 0 .8.6 1.8 1.3 2 .7.3.5.6-.5.6-1 .1-1.8-.6-1.8-1.4 0-2.1-6.1-5.6-8.4-4.9-1.2.4-1.6.2-1.2-.5.4-.6.4-1-.1-.9-.4.1-3.6-.1-7-.5-8.5-1.1-11.3-.3-10.9 3.1.2 1.5.1 2.1-.1 1.4-.8-2.2-2.3-1.2-2.3 1.6 0 3.2-2.7 7.5-4.1 6.6-.5-.3-1.7 0-2.5.7-1.3 1.1-1.4.9-1-1.4 1.7-7.8 1.7-7.7.1-7.1-1.7.7-1.7-1.6 0-2.8 1.6-1.2-1.6-.8-5.7.6-2.1.8-3.8 1-3.8.6 0-.5.6-1.1 1.3-1.3.6-.3-1.3-.6-4.3-.6-3.9-.1-5.1-.4-4-1.1.8-.5 1-1 .3-1-.6 0-2.2 1.3-3.5 2.8-1.3 1.6-2.9 2.7-3.6 2.4-.7-.2-1.2 0-1.2.5s-1.4 1-3.1 1.1c-2.4.2-3-.1-2.6-1.3.9-2.3-2.4-3.5-8.4-3-3 .2-5.7.4-6.1.5-1.3 0-.9 2.8.5 3.3.6.3-.7.6-3 .6-2.4.1-4.3.5-4.3 1s1.8.7 4 .4c2.4-.3 4-.2 4 .4 0 .6-1.8 1.3-4 1.7-2.2.3-4 1.1-4 1.7 0 .6-.7.8-1.7.5-1.8-.7-6.3 2.9-6.3 5.1 0 .7.9 1.3 2 1.3 2.4 0 2.5.6.6 2.6-1.9 1.8-2.7 1.8-2-.1.7-1.7-1.3-2-3.6-.5-1.3.8-1.2 1 .3 1 1 0 1.7.7 1.6 1.7 0 1.1-.3 1.3-.6.5-.2-.6-.9-1.2-1.5-1.2-.5 0-.8.6-.5 1.2.6 1.9-3 6.5-7.6 9.9-2.5 1.8-3.4 2.9-2.3 2.9 1 0 1.4.5 1.1 1.1-.4.6-1.4.8-2.2.5-1.1-.4-1.3-.2-.9.9.3.8 0 1.5-.7 1.5-.9 0-.8.3.1.9 2.1 1.3-4.9 5-8.2 4.4-1.5-.3-2.6-.1-2.6.6 0 .6.8 1 1.8.9 3.4-.3 8.5.2 8 .8-.3.3-2.1.7-3.9.9-1.9.3-3.5.9-3.7 1.4-.5 1.5-3.6 4.7-5.2 5.4-.8.4.3.5 2.5.2 2.9-.3 3.5-.2 2 .5-1.1.5-3.1.9-4.5 1-2.4.1-2.4.1-.6 1.5 1.1.8 1.5 1.5 1 1.5-1.7 0-1.3 3.9.4 4.3 1 .3.5.5-1.1.6-2.5.1-2.7-.1-1.7-1.9.9-1.6.8-2-.5-2-.8 0-1.5.7-1.5 1.5v2.2c-.1 1.1 6.3 2.3 7.5 1.4.5-.4 1.9-1.1 2.9-1.5 1.9-.7 1.9-.6.1 1.4-1.6 1.8-1.6 2-.2 2 1 0 1.7-.5 1.7-1 0-.6.7-1 1.5-1s1.2-.6.9-1.4c-.3-.8.3-1.6 1.5-1.9 1.4-.3 1.8-.1 1.4.9-.3.9.3 1.4 1.8 1.5 1.9.1 2 .2.6.6-1.2.3-1.6 1-1.2 2.1.3.8 0 1.9-.7 2.3-.7.5.5.6 2.7.3 3-.4 3.6-.3 2.5.5-.8.6-3.1 1.1-5 1.1-2.6 0-3.1.3-2 1 1.2.8 1 1-.8 1-1.3 0-2-.4-1.7-1 .3-.6-.1-1-1-1-1.2 0-1.5.5-1.1 1.6.3.9.6 1.8.6 2 0 .2 1 .5 2.3.5 1.7.1 1.8.2.4.6-1 .3-2.5-.1-3.3-.8-1.2-.9-1.3-.9-.9.2.4 1-.3 1.4-2.4 1.5l-3 .1 2.2-1.8c2.6-2.1 1.9-2.4-1.8-.7-1.4.6-2.4 1.7-2.1 2.4.3.9-.1 1.1-1.1.7-1.2-.5-1.4-.3-.8.7.6 1 .3 1.2-1.3.8-1.2-.4-2-.2-1.7.2.3.5-.4 1.1-1.5 1.5-2.4.8-1.7 2.5 1 2.5 1.6 0 1.8.6 1.5 3.2-.2 1.8.1 3.8.7 4.5.8 1 .5 1.3-1.2 1.3-1.9 0-2 .2-1 1.5s.9 1.5-1.1 1.6l-2.4.1 2.5.8c1.4.4 1.9.8 1.2.9-.7.1-1.1.5-.8.9.3.5-3.1 1.5-7.4 2.2-4.8.8-8 1.8-8 2.6 0 .6-.3 2.6-.6 4.3-.5 2.3-.3 3.1.7 3.1 4 .1 4.3 1.4 4.4 18.2 0 11.3.4 17 1.3 18.6 1.3 2.2 12 8.1 19.7 10.9 11.8 4.2 26.8 7.3 36.4 7.5 5.5.2 9.6.5 9 .6-.5.2-1.6 1.7-2.5 3.4-1.4 2.8-1.6 2.9-2.9 1.2-1.3-1.8-1.4-1.8-3.2-.1-1.1.9-2.7 1.7-3.6 1.7-.9 0-1.6.6-1.5 1.3.2.6-.6 1.2-1.8 1.1-1.2 0-2.1.7-2.1 1.8-.2 2.3-3.5 6.7-5 6.8-.7 0-1.3.5-1.3 1.1 0 .6-.8.8-1.9.4-2.8-.9-5.3.5-4.6 2.5.4 1.3 0 2-1.4 2.5-1.1.3-3.1 3-4.6 6.1-2.4 5-4.5 7-4.5 4.2 0-.6-.3-.9-.6-.5-.6.6-1.4 5.5-1.5 9.4-.1 1.6-.7 2.3-2 2.3-1 0-1.9.7-1.9 1.5s-.7 1.5-1.5 1.5c-2.1 0-3 2.7-1.6 4.4.8 1 .9 1.6.2 2.1-.6.3-1.6-.6-2.3-2-.8-1.7-1.8-2.5-2.9-2.2-1.4.4-1.6-.2-1.3-3.9.5-4.9-.7-5.7-3.1-2-.9 1.3-2.2 2.7-3 3-1.8.7-6.5-1.6-6.5-3.2 0-.6-.4-1.2-1-1.2-.5 0-1 1-1 2.2 0 3.9-1.2 6.8-2.7 6.8-1 0-1.1-.4-.3-1.9 1.3-2.5 1.3-4.1 0-4.1-.5 0-1 .7-1 1.5 0 1.8-1.6 2-2.3.2-.8-1.7-2.7 1.2-2 3 .3.8 0 1.1-.9.8-1.8-.7-4.4 2-2.8 3 1.2.7 1.3 2.5.2 2.5-.5 0-1.4-1.1-2-2.5-.6-1.4-1.8-2.5-2.7-2.5-.8 0-1.5-.6-1.5-1.4 0-1.5 2.1-2.6 5.1-2.6 2.4 0 2.5-2 .2-2.1-3.7-.3-5.9.4-7.5 2.2-2.1 2.1-2.3 4.5-.5 5.2 1 .4 1 .6 0 .6-.7.1-1.3 1.2-1.3 2.6 0 3.1-2 3.3-2.1.2 0-1.2-.3-1.6-.6-.9-.2.6-1.2 1.2-2.1 1.2-1.2 0-1.3-.3-.4-1.2.7-.7 1.2-1.9 1.2-2.7 0-1.1-.4-1-2 .4-2.3 2.1-2.4 1.7-1-2 .8-2.2.6-3.2-1-5.5-1.1-1.5-2-3.3-2-3.8s-1.1-1.7-2.5-2.6c-2-1.3-2.4-2.2-1.9-4.1.4-1.6.2-2.5-.5-2.5-.8 0-.8-.6.1-2s1.4-1.6 2-.7c.5.8.8.8.8.1 0-.6-.9-2.3-2.1-3.8-1.1-1.4-1.8-3.2-1.6-3.9.3-.7.6-.5.6.5.1 1 .6 1.8 1.2 1.8s.8-1 .5-2.3c-.3-1.2-.3-1.6 0-1 .8 1.8 2.4 1.6 2.4-.3 0-.8.5-1.2 1-.9.5.3 1-.3 1-1.4 0-1.5-.6-2.1-2.1-2.1-1.6 0-1.9-.4-1.4-2s.2-2-1.4-2c-2 0-2.1-.5-2.1-11.4 0-6.5.4-11.7 1-12.1.6-.4.4-1.5-.5-2.8-1.4-2.2-1.4-4.5.1-10.9.5-2.1.1-2.9-1.7-3.9-2.3-1.2-2.3-1.2-.4-2 1.7-.7 1.8-.8.2-.8-1.4-.1-1.6-.7-1.1-2.6.4-1.5.1-3.2-.6-4-.9-1-.9-1.5-.1-1.5.6 0 1.1.5 1.1 1.1 0 .5.4.8.9.4.6-.3.6-1.8 0-3.8-1.3-4.6-1.1-7.7.5-7.7.7 0 2.1-1.6 3-3.5 1-2 2.6-4.1 3.7-4.8 3.2-2 2.2-3.3-3.6-4.6-6.3-1.4-6.9-2-5.5-5.5.9-2.4 1.5-2.6 6.5-2.6 5.2 0 5.5-.1 5.5-2.5 0-1.3.8-3.9 1.8-5.7.9-1.8 2.4-5.1 3.1-7.3 2.2-6.3 9.3-9.9 13.8-7 1.8 1.2 2.3 1.2 3.4-.1.7-.8 2.1-1.3 3.1-1.1 1 .3 2.2-.2 2.7-1.1.8-1.4 1.2-1.5 2.2-.5.7.7 2 1.3 2.8 1.3 1.4 0 1.4-.1.1-1-1.2-.7-.8-1 1.5-1 2.4 0 2.7.2 1.5 1.1-1.8 1.2 1.6.4 6.4-1.6l2.9-1.3-3.4-.7c-3.4-.8-3.4-.8-.9-1.8l2.5-1-2.5-.6c-2.7-.7-3.9-3.1-1.5-3.1.9 0 1.5-.9 1.5-2.5 0-2 .5-2.5 2.3-2.5 1.3 0 3.4-1.1 4.7-2.5 1.3-1.4 1.8-2.5 1.1-2.5-1.6 0-4.2-2.6-3.4-3.3.3-.4 1.5 0 2.7.8 1.1.8 2.5 1.5 3.1 1.5.5 0-.5-.9-2.3-2-1.8-1.1-3.7-1.8-4.1-1.6-.4.3-2.7 0-5.2-.6-2.4-.5-5.9-1-7.7-.9-1.9 0-3-.4-2.7-.9.3-.6 1.3-1 2.1-1 1.4 0 9.6-4.2 12-6.1 1.1-.9 5.2-.2 7 1.3.7.5 1.7.2 2.5-.8 1.2-1.5 1.1-1.6-1-.9-1.8.5-2.2.4-1.6-.5.5-.9.4-1.1-.3-.6-.7.4-1.9.3-2.8-.2-1.5-.8-1.4-1.1.6-2.5s2-1.6.3-1.9c-1.4-.4-1.1-.7 1.2-1.3 1.6-.5 3.5-1.3 4.2-1.9 3.3-2.9 4.3-3.6 4.3-3 0 .4.9-.1 2-1.1s2.3-1.5 2.7-1.2c.8.9-2.5 3.5-5.4 4.3-1.2.3-2.5 1.3-2.8 2.3-.2.9-1.8 2.2-3.5 2.9-3 1.4-4.3 3.9-1.4 2.8.9-.3 2.2-.6 3-.6.9 0 1.2-.5.9-1-.3-.6.3-1 1.4-1 1.2 0 2.1-.6 2.1-1.3 0-.7.9-1.3 2-1.4 2.2-.2 7.1-3.3 5.2-3.3-.7 0-1-.5-.7-1.1.4-.6 1.3-.8 2-.5.7.2 1.6-.1 1.9-.9.3-.9 0-1.2-1-.8-2.2.8-1.6-1.3.9-3 2.1-1.5 2.1-1.6.2-1.6-1.2-.1-2.5.3-3.1.9-.5.5-1.5.6-2.4 0-1.1-.6-.7-1 1.6-1.5 7.1-1.5 14.5-3.9 15.5-5.2 1.4-1.6-.1-1.8-2.9-.4-2.1 1-8 3.1-10.7 3.7-1.6.4-1.5.3.4-.9l2.4-1.4-3.6-.7c-2-.4-3.9-1.1-4.2-1.6-.3-.6.1-.7.9-.4.9.3 1.6.1 1.6-.5 0-1.5-8.3-1.4-9.8.1-.9.9-1.5.9-2.4-.1-1-1.1-1-1.4 0-1.8 1.8-.7 1.4-3.3-.5-3.4-1.5 0-1.5-.2.2-.9 1.9-.8 1.9-.8-.5-1.8s-2.4-1.1-.3-1.1c1.2-.1 2.5.3 2.8.9.3.5 2.3 1 4.4 1 3.1 0 4-.4 4.4-2.2.7-2.7-.1-3.8-1.3-1.8-.5.7-2.1 1.5-3.7 1.6-1.5.1-2.1 0-1.1-.2 2.2-.7 3.2-3.5 1.6-4.6-1.6-1-7.8-2.8-9.6-2.8-.7 0-1 .4-.7 1 .3.5.1 1-.4 1-.6 0-1.1 1.4-1.1 3.1 0 3.1-1.9 3.7-2.8.9-.3-.7 0-1 .7-.6.6.4 1.1.3 1.1-.3 0-1.1-3.9-2.5-4.7-1.7-.4.3-.1.6.5.6.9 0 .9.6 0 2.5-.6 1.4-1.7 2.4-2.4 2.1-.8-.3-1.6-.1-1.9.4-.4.6 0 1 .8 1 1 0 1.3.7 1 2-.3 1.1-1 2-1.5 2s-.6.4-.3 1c.3.5.2 1-.4 1-1.7 0-2.3-2-.7-2.6 1.3-.5 1.3-1 .5-2.7-1-1.7-.8-2.3 1.4-3.9 1.7-1.2 2.4-2.5 2-3.5-.5-1.3 0-1.5 2.6-1.1 2 .3 2.8.1 2.2-.5-1.2-1.2-7.8 0-8.7 1.5-.4.7-.3.8.4.4s1.2-.3 1.2.2c0 .6-.7 1.2-1.5 1.6-2.3.9-1.8-2.7.6-4.4 1.1-.8 2.5-2.3 3-3.3.9-1.5.7-1.7-1.5-1.1-2.2.5-2.6.3-2.6-1.6 0-1.2.9-3.5 2.1-5.1 2.4-3.5 2.1-3.8-.8-.7zM143 68c-3 2.3-4.8 2.6-2.6.5.8-.8 1.9-1.5 2.5-1.5.6 0 1.1-.5 1.1-1.2 0-.6.3-.8.7-.4.4.4-.3 1.6-1.7 2.6zm149.7-2.3c-.4.3-.2 1.2.4 2 .9 1 .8 1.3-.1 1.3-.7 0-1.8.7-2.5 1.6-1 1.4-1.2 1.2-1.2-1.5 0-1.8.3-2.7.7-2.1.5.8.9.7 1.3-.4.4-.9 1-1.6 1.3-1.6.4 0 .4.3.1.7zM233 67c0 .5-1.2 1-2.7.9l-2.8-.1 2.5-.8c1.4-.4 2.6-.8 2.8-.9.1-.1.2.3.2.9zm53 0c0 .5-.2 1-.4 1-.3 0-.8-.5-1.1-1-.3-.6-.1-1 .4-1 .6 0 1.1.4 1.1 1zm12 .1c0 .5.5.7 1.2.3.7-.4.8-.3.4.5-.6.9-1.1.9-2.2 0-1.7-1.4-1.8-1.9-.4-1.9.6 0 1 .5 1 1.1zm3.7 5.2c.4.7-.1.6-1.1-.2-1.5-1.3-1.9-1.3-2.7 0-.7 1.1-.9 1.1-.9-.4 0-.9-.4-1.7-1-1.7-.5 0-1-.4-1-.9 0-1.2 5.7 1.6 6.7 3.2zm-74.5-2.6c-.6.2-1 .8-.7 1.3.3.4-.2 1-1 1.4-.9.3-1.5 0-1.5-.8 0-1.7 1-2.6 2.9-2.5 1.1 0 1.2.2.3.6zm30.1 8c-.7.2-2.1.2-3 0-1-.3-.4-.5 1.2-.5 1.7 0 2.4.2 1.8.5zm-74.7 1.8c-2.6 2-1.3 1.9 2.5-.1 1.7-.8 3.3-1.3 3.7-1 .3.3.1.6-.4.6-2 0-11.5 6.8-10.2 7.3.9.4.9.6.1.6-1.7.1-4-4.2-2.5-4.7.7-.2 2.2-1.2 3.4-2.2 1.3-1.1 3-1.9 3.8-1.9 1.1 0 1 .3-.4 1.4zm-30.9.1c-.3.3-1.2.4-1.9.1-.8-.3-.5-.6.6-.6 1.1-.1 1.7.2 1.3.5zm-30 2c-.3.3-1.2.4-1.9.1-.8-.3-.5-.6.6-.6 1.1-.1 1.7.2 1.3.5zm193 2.6c-.3.7-.5.2-.5-1.2s.2-1.9.5-1.3c.2.7.2 1.9 0 2.5zm-147.1 1.3c-1.1.8-2.7 1.5-3.5 1.5-1.1 0-1-.4.5-1.5 1-.8 2.6-1.4 3.4-1.4 1.1 0 1 .3-.4 1.4zm-30.1 3c-1.6 1.4-3.9 3-5 3.7-1.9 1-1.9 1-.5-.8 2.5-3.1 3.5-4 5-4.7 3.2-1.2 3.4-.6.5 1.8zm81.2-1.9c-.3.3-1.2.4-1.9.1-.8-.3-.5-.6.6-.6 1.1-.1 1.7.2 1.3.5zm33.4 3c-.5 1.6-1 2.1-1 1.2-.1-1.8 1-5.1 1.5-4.5.2.1-.1 1.6-.5 3.3zM161.5 88c-.3.5-1.6 1-2.8 1-1.8 0-1.9-.2-.7-1 2-1.3 4.3-1.3 3.5 0zm70.8.7c-.7.2-2.1.2-3 0-1-.3-.4-.5 1.2-.5 1.7 0 2.4.2 1.8.5zm9.4-.1c-.3.3-1.2.4-1.9.1-.8-.3-.5-.6.6-.6 1.1-.1 1.7.2 1.3.5zm-88.9 1.1c-1 .2-2.8.2-4 0-1.3-.2-.5-.4 1.7-.4 2.2-.1 3.2.1 2.3.4zm8.2 1.4c0 .6-.9.8-2.1.4-1.6-.5-1.9-.4-1.4.6.6.9.3 1.1-.9.6-1-.4-2.5-.8-3.4-.8-.9-.1-.3-.5 1.3-.9 4.5-1.1 6.5-1.1 6.5.1zm-6.1 6.2c-1.9 1.9-4.1 3.7-4.9 4-.8.3.4.6 2.8.6 2.4.1 6.1-.8 8.5-1.9 3.9-2 3.6-1.4-1.2 1.9-1.1.8-1.8 1.8-1.5 2.3.3.4-.4.8-1.6.8-1.1 0-2.3.7-2.6 1.5-.4.8-1.2 1.5-2 1.5s-1.4.5-1.4 1.1c0 1.3-3 3.8-4.5 3.8-.5 0 .1-.9 1.4-1.9l2.3-2-2.3-.1-2.4-.1 2.4-.7c2.8-.8 4-3.1 1.6-3.1-.9 0-1.3.4-1 1 .3.5.1 1-.4 1-.6 0-1.1-.5-1.1-1 0-.6-1.5-1.1-3.2-1.1l-3.3-.2 3.5-.8c3.1-.7 2.9-.8-1.5-.5-2.7.2-4.4.1-3.7-.1 1-.4 1-.8.1-1.9-1.5-1.8-3-1.8-2.3 0 .4 1-.6 1.5-4 1.8-2.5.2-4.6 0-4.6-.3 0-1.6 3.1-3 5.2-2.4 1.7.5 1.9.4.8-.4-2.6-1.8 1.4-2.4 4.7-.8 3 1.6 12.7 1.2 11.7-.4-.3-.5.1-.9.8-1 1 0 .9-.2-.1-.6-1-.4-.2-1 2-1.8 5.3-1.9 5.5-1.7 1.8 1.8zM333.5 95c.3.5.2 1-.4 1-.5 0-1.3-.5-1.6-1-.3-.6-.2-1 .4-1 .5 0 1.3.4 1.6 1zM171 97c0 .5-1 1-2.2.9-2.2 0-2.2-.1-.3-.9 1.1-.5 2.1-.9 2.3-.9.1-.1.2.3.2.9zm-43.5 1c.3.5-.1 1-1 1s-1.3-.5-1-1c.3-.6.8-1 1-1 .2 0 .7.4 1 1zM327 98c0 .5-.4 1-1 1-.5 0-1-.5-1-1 0-.6.5-1 1-1 .6 0 1 .4 1 1zm-39.9 7.5c-.5 1.1-1.5 3.7-2.1 5.7-.6 2.1-1.6 3.8-2.1 3.8s-.9.7-.9 1.5-.5 1.5-1.1 1.5c-.6 0-.1-1.6 1-3.6l2.2-3.7-2.2.6c-2.1.6-2.1.6-.2-1.3 1.1-1 2.3-3.7 2.7-6.1.4-2.3 1-4.7 1.3-5.3 1.1-1.7 2.4 4.7 1.4 6.9zm51.6-3.3c-.3.8-.6.5-.6-.6-.1-1.1.2-1.7.5-1.3.3.3.4 1.2.1 1.9zM164 103.4c0 .2-.7.7-1.6 1-.8.3-1.2.2-.9-.4.6-1 2.5-1.4 2.5-.6zm35.6 2.7c-2.2 1.7-4.6 2.5-4.6 1.5 0-.2-.3-1.1-.6-1.9-.4-1.1.4-1.5 3.6-1.5l4.1-.1-2.5 2zm-60.1 2.8c-.6.5-2.3 1.3-4 1.6l-3 .7 2.5-1.5c2.8-1.7 5.9-2.2 4.5-.8zm-58.6 4.2c-.7 1.3-.5 2 .7 2.7 1.2.7 1.5 1.7 1 3.7-.6 2.2-.9 2.5-2.1 1.5-1.6-1.3-1.9-5.8-.8-9.8.4-1.7.8-2 1.4-1.1.4.7.3 2.1-.2 3zm46.4-2.4c-.7.2-1.9.2-2.5 0-.7-.3-.2-.5 1.2-.5s1.9.2 1.3.5zm99.2 1.3c.3.5.1 1-.4 1-.6 0-1.1-.5-1.1-1 0-.6.2-1 .4-1 .3 0 .8.4 1.1 1zm79.2 1.2c-.3.8-.6.5-.6-.6-.1-1.1.2-1.7.5-1.3.3.3.4 1.2.1 1.9zM100 114c-.6 1.2-1 2.8-.9 3.8.3 3.3-.4 10.7-.8 8.5-.3-1.5-.9-2-2-1.6-1.3.5-1.5 0-.9-3.3.4-2.1 1.2-4.1 1.7-4.2.5-.2.9-1.2.9-2.1 0-1.9.8-3.1 2.2-3.1.5 0 .4.9-.2 2zm67.6-.5c-1.1.8-2.2 1.2-2.5.9-.6-.6 1.9-2.4 3.4-2.4.6.1.1.7-.9 1.5zm48.3-1.1c-1.1.9-9 1.6-8.4.6.3-.5 2.5-1 4.7-1 2.3 0 3.9.2 3.7.4zm6.4.3c-.7.2-1.9.2-2.5 0-.7-.3-.2-.5 1.2-.5s1.9.2 1.3.5zm-52.8 3.2c-.4 1.3 0 2.3 1.2 3 1.5.9 1.3 1-1.3 1.1-4.2 0-4.6-.7-2.1-3.6 2.5-2.9 3-3 2.2-.5zm32.8.2c-1.8 1.2-3.3 2.3-3.3 2.5 0 .2 2.3-.5 5.2-1.6 2.8-1.1 5.4-1.8 5.6-1.6.6.6-10.7 4.6-13.1 4.6-1.8 0-1.9.2-.7 1s1.1 1-.5.8c-4.7-.3-7.6.2-6.9 1.4.5.8 0 .9-1.7.5-1.3-.4-3.5-.7-4.9-.8-1.4 0 .4-.7 4-1.5 6-1.3 8.6-2.3 15-6 3.9-2.2 4.9-1.6 1.3.7zm-38.4 1c-1.5.9-3.2.2-2.4-1.1.3-.5 1.3-.6 2.1-.3 1.2.4 1.3.8.3 1.4zm117.8 2.5c-.3.3-1.2.4-1.9.1-.8-.3-.5-.6.6-.6 1.1-.1 1.7.2 1.3.5zM136 121c0 .5-.7 1-1.5 1s-1.5-.5-1.5-1c0-.6.7-1 1.5-1s1.5.4 1.5 1zm-54.9 2.4c.5-.3.9.2.9 1.2 0 1.3-.3 1.4-1.5.4-.8-.7-1.5-1.8-1.4-2.4 0-.7.2-.6.6.2.2.6.9 1 1.4.6zm78.6-.8c-.3.3-1.2.4-1.9.1-.8-.3-.5-.6.6-.6 1.1-.1 1.7.2 1.3.5zm5.8.4c.4.6-.6 1-2.2.9-2.5 0-2.6-.1-.8-.9 1.1-.5 2.1-.9 2.2-.9.1-.1.5.3.8.9zm-7 2l2 .9h-2c-1.1 0-2.7-.4-3.5-.9-1.3-.9-1.3-1 0-.9.8 0 2.4.4 3.5.9zm4.5 2c0 .5-.3 1-.7 1-.5 0-1.9.3-3.3.6l-2.5.6 2.5-1.5c3.1-1.8 4-2 4-.7zm32-.6c0 .2-.7.7-1.6 1-.8.3-1.2.2-.9-.4.6-1 2.5-1.4 2.5-.6zm-98 2c0 .7-.8 2-1.7 2.7-1.5 1.1-1.6 1.1-.6 0 .6-.7.9-2 .6-2.7-.3-.8 0-1.4.6-1.4s1.1.6 1.1 1.4zm-13.3.2c-.3.3-1.2.4-1.9.1-.8-.3-.5-.6.6-.6 1.1-.1 1.7.2 1.3.5zm83.6 5.1c-.7.2-1.9.2-2.5 0-.7-.3-.2-.5 1.2-.5s1.9.2 1.3.5zM86.5 139c.3.5.1 1-.4 1-.6 0-1.1-.5-1.1-1 0-.6.2-1 .4-1 .3 0 .8.4 1.1 1zm266.9-.1c.3.5-.1 1.1-.9 1.5-1.5.6-2.9-.7-1.8-1.8.9-.9 2.1-.8 2.7.3zM65 144.4c0 .3-.4.8-1 1.1-.5.3-1 .1-1-.4 0-.6.5-1.1 1-1.1.6 0 1 .2 1 .4zm293 2.2c0 .8-.5 1.2-1 .9-.6-.4-.8-1.1-.5-1.6.9-1.4 1.5-1.1 1.5.7zM176 154c0 .5-.4 1-1 1-.5 0-1-.5-1-1 0-.6.5-1 1-1 .6 0 1 .4 1 1zm-97.9 3.4c-1 1.1-.9 1.6.5 2.4 1.4.8 1.1 1.1-1.6 2-1.8.7-4.2 1-5.4.8-1.1-.2-1.5-.1-.8.1.6.3 1.2.9 1.2 1.5 0 .7-1.9.9-5 .6-7.9-.8-8.2-2.3-.9-3.7 2.4-.5 3.5-.9 2.4-1-1.7-.1-1.7-.3-.5-1.1.8-.5 2.3-.7 3.3-.4.9.3 2.4-.2 3.3-1 2-2.1 5.2-2.2 3.5-.2zm-12.8 2.3c-.7.2-1.9.2-2.5 0-.7-.3-.2-.5 1.2-.5s1.9.2 1.3.5zm211.7 3.5c.8-.1 2.9-.2 4.5-.4 2.3-.2 2.9.1 2.7 1.3-.2 1.2.8 1.9 3.3 2.3 2 .4 3.3 1.1 3 1.7-.4.5.8.9 2.4.9 1.7 0 3.1.5 3.1 1.1 0 .5.4.8.9.4.5-.3 1.2-.1 1.6.5.5.8 4.7.6 8.5-.6 1.3-.5 1.3-.6 0-1.5-1.2-.8-1-.9.6-.4 1.4.4 2.4 0 2.8-1 .3-.9 1.8-1.5 3.5-1.5 1.6 0 3.2-.4 3.5-.9.7-1.1 4.6-.2 4.6 1.1 0 .5.7.8 1.6.6 1.2-.2 1.8.5 2 2.2.3 3.6.9 5.9 1.7 6.6.8.8-.8 3.9-3.3 6.4-1.8 1.8-1.8 1.8-2.3-.2-.4-1.5-.9-1.7-2.4-1-2.2 1.2-4.3.5-4.3-1.4 0-2-2-1.7-2.1.3-.1 1.7-.2 1.7-.6 0-.4-1.5-1.4-2.1-3.4-1.9-.3 0-2.2-.3-4.3-.8-2.4-.5-6.2-.4-10 .2-3.3.6-7 1.2-8.1 1.3-13.1 1.5-14.3 1.8-13.7 3.3.3 1-.3.7-1.6-.6-1.2-1.2-2.2-2.8-2.2-3.6 0-.7-.7-1.9-1.5-2.6-1-.9-1.5-.9-1.5-.1 0 .6.5 1.1 1.1 1.1 1.5 0 .7 5.3-1 5.8-.9.3-1.1-.1-.7-1.4.4-1.5-.2-2.3-2.7-3.4-1.7-.8-3.9-1.5-4.8-1.5-2.3 0-7-6-6.3-7.9.3-.9 1.4-1.6 2.4-1.6s2-.5 2.2-1.1c.2-.5 2.5-1.2 5.2-1.4 2.6-.2 5.1-.7 5.5-1 .3-.4 2.4-.3 4.6 0 2.2.4 4.7.7 5.5.7zm-78.2 1.4c1.4 1.5 1.4 1.6-.3 1.3-1-.2-2-1-2.3-1.7-.5-1.7.6-1.5 2.6.4zm148.9.6c-.3.8-.6.5-.6-.6-.1-1.1.2-1.7.5-1.3.3.3.4 1.2.1 1.9zm-154.4-.5c-.7.2-1.9.2-2.5 0-.7-.3-.2-.5 1.2-.5s1.9.2 1.3.5zm19.3 1.8c-.5 1.5.1 1.7 5.2 1.8 2.1 0 2.8.8 1.6 1.9-.3.4-2 .2-3.7-.4-1.8-.5-4.5-1.3-6.2-1.8-2.4-.6-2.6-.8-.7-.9 1.2-.1 2.2-.6 2.2-1.1 0-.6.5-1 1.1-1 .6 0 .9.7.5 1.5zm-17.8 3c4 .9 8.2 2.4 9.3 3.4 2.9 2.7 11.9 4.3 11.9 2.1 0-.6-1.5-1.1-3.2-1.1-2.5-.1-2.7-.3-1-.6 1.3-.3 4.4.2 7 1.1 2.6.8 6.7 2 9.2 2.6 2.5.7 7 2.1 10 3.2 14.5 5.3 15.2 6.3 11.5 17.3-3.8 11.1-12.3 24.4-18.4 28.6-3.1 2.1-4.5 2.4-13 2.3-11.4-.1-28.7-3.5-37.6-7.4-11.1-4.7-15.6-7.2-16.8-9.2-2.5-3.8-3.1-16.1-1.3-27.1 1.8-11.1 2.9-13.4 7.1-15.3 4-1.8 16.4-1.7 25.3.1zm30.2.9c0 .3-.4.8-1 1.1-.5.3-1 .1-1-.4 0-.6.5-1.1 1-1.1.6 0 1 .2 1 .4zm10.7 5.2c-.3.3-1.2.4-1.9.1-.8-.3-.5-.6.6-.6 1.1-.1 1.7.2 1.3.5zM261 180c0 .5-.5 1-1.1 1-.5 0-.7-.5-.4-1 .3-.6.8-1 1.1-1 .2 0 .4.4.4 1zm10.7 4.6c-.3.3-1.2.4-1.9.1-.8-.3-.5-.6.6-.6 1.1-.1 1.7.2 1.3.5zm74.3.4c0 .5-.5 1-1.1 1-.5 0-.7-.5-.4-1 .3-.6.8-1 1.1-1 .2 0 .4.4.4 1zm-24.7 7.7c-.7.2-2.1.2-3 0-1-.3-.4-.5 1.2-.5 1.7 0 2.4.2 1.8.5zm4.4.9c-.3.3-1.2.4-1.9.1-.8-.3-.5-.6.6-.6 1.1-.1 1.7.2 1.3.5zm-68.2 1.4c.3.5.1 1-.4 1-.6 0-1.1-.5-1.1-1 0-.6.2-1 .4-1 .3 0 .8.4 1.1 1zm73.8-.3c-.7.2-1.9.2-2.5 0-.7-.3-.2-.5 1.2-.5s1.9.2 1.3.5zm6 1c-.7.2-2.1.2-3 0-1-.3-.4-.5 1.2-.5 1.7 0 2.4.2 1.8.5zM103.1 209c-1.5 6.8-1.4 7.7.5 5.4 1.5-1.8 1.5-1.8 1 .4-.3 1.8-.1 2.2 1 1.8 1.8-.7 1.8.4-.1 1.8-.8.6-1.6 3.1-1.9 5.6-.4 3.2-.3 4.1.5 3 .8-1.1.9-.8.7 1.5-.1 1.7.1 3.6.6 4.3.4.7.5 1.6.2 1.9-.3.3.3 1.8 1.4 3.3 1.1 1.6 2 3.5 2 4.4 0 .9.5 1.6 1 1.6.6 0 1.4 1 1.9 2.2.7 2 .9 1.8 1.5-1.7.5-2.5 1-3.4 1.6-2.6.4.8 0 3-.9 5.1-1 2.4-1.9 3.4-2.3 2.7-.5-.8-.8-.6-.8.5 0 1-.9 2.2-1.9 2.8-2.9 1.5-3.2 1.3-2.5-1.5.5-1.9.2-2.5-1-2.5-.9 0-1.5-.3-1.5-.8.4-2.7-.3-3.3-3-2.7-3.6.8-10.1-1.8-10.1-3.9 0-.9-.4-1.6-1-1.6-.5 0-1-.5-1-1.1 0-.6-1.3-3.9-2.9-7.3-5.2-10.9-8.6-22.6-6.1-21.1.6.3 1 1.6 1 2.7 0 1.2.2 1.9.5 1.6.3-.3 2 .8 3.7 2.4 2.6 2.4 3.8 2.9 6.2 2.4 1.7-.4 4.1-.8 5.3-1 3.6-.7 4.6-1.6 3.2-3.2-.7-.8-1.3-3.5-1.3-6-.1-3.4.4-4.9 1.8-6 3-2.2 4-.3 2.7 5.6zm-30.6 0c.3.5.1 1-.4 1-.6 0-1.1-.5-1.1-1 0-.6.2-1 .4-1 .3 0 .8.4 1.1 1zm208.5 4c0 1.6-.2 3-.4 3s-.6-1.4-.8-3c-.3-1.7-.1-3 .4-3 .4 0 .8 1.3.8 3zm-169 0c0 .5-.5 1-1.1 1-.5 0-.7-.5-.4-1 .3-.6.8-1 1.1-1 .2 0 .4.4.4 1zm2.6 10.7c-.8.9-3.6-3-2.9-4 .3-.5 1.2.1 2 1.3s1.2 2.4.9 2.7zm-3.1 1.1c-.3.3-1.1 0-1.8-.7-.9-1-.8-1.1.6-.5 1 .3 1.5.9 1.2 1.2zm-36.8 1.8c-.3.3-1.2.4-1.9.1-.8-.3-.5-.6.6-.6 1.1-.1 1.7.2 1.3.5zm41.3-.2c0 .2-.7.6-1.5 1-.8.3-1.5.1-1.5-.4 0-.6.7-1 1.5-1s1.5.2 1.5.4zm-38.3 3.2c-.3.3-1.2.4-1.9.1-.8-.3-.5-.6.6-.6 1.1-.1 1.7.2 1.3.5zm154.8.4c.3.6-.1.7-.9.4-1.8-.7-2.1-1.4-.7-1.4.6 0 1.3.4 1.6 1zM77 235.4c0 .2-.7.6-1.5 1-.8.3-1.5.1-1.5-.4 0-.6.7-1 1.5-1s1.5.2 1.5.4zm149.7.2c-.3.3-1.2.4-1.9.1-.8-.3-.5-.6.6-.6 1.1-.1 1.7.2 1.3.5zM114 253c0 .5-.2 1-.4 1-.3 0-.8-.5-1.1-1-.3-.6-.1-1 .4-1 .6 0 1.1.4 1.1 1zm-2.2 4.1c.3 1.1.2 1.1-.7-.1-1-1.3-1.2-1.3-2 0-.6.8-1.3 1.1-1.8.7-.8-.9 1.7-2.8 3.1-2.4.6.2 1.1 1 1.4 1.8zM197 260c0 .5-.7 1-1.6 1-.8 0-1.2-.5-.9-1 .3-.6 1-1 1.6-1 .5 0 .9.4.9 1zm-104.4 4.8c-1 .2-2.2 0-2.8-.6-.6-.6 0-.7 1.9-.4 2.1.5 2.3.7.9 1zm5.1-1.2c-.3.3-1.2.4-1.9.1-.8-.3-.5-.6.6-.6 1.1-.1 1.7.2 1.3.5zm18 11.6c-.3.7-.5.2-.5-1.2s.2-1.9.5-1.3c.2.7.2 1.9 0 2.5zm43.8 3.8c.3.5-.1 1-1 1s-1.3-.5-1-1c.3-.6.8-1 1-1 .2 0 .7.4 1 1zm140.5 5.4c0 .3-.4.8-1 1.1-.5.3-1 .1-1-.4 0-.6.5-1.1 1-1.1.6 0 1 .2 1 .4zm-126 2.7c0 1.1-.4 1.7-1 1.4-.5-.3-1-1.3-1-2.1s.5-1.4 1-1.4c.6 0 1 .9 1 2.1zm-43 4.8c0 .5-.7 1.4-1.5 2.1-1.2 1-1.5 1-1.5-.2 0-.8.3-1.8.7-2.1.9-1 2.3-.9 2.3.2zm101.1 4.7c3.4.2 7.2 1 8.3 1.7 1.2.7 4.7 1.9 7.9 2.7 3.2.7 6.7 2.2 7.9 3.2 1.5 1.3 3.7 1.8 8 1.8 5.1 0 5.8.2 5.8 2 0 1.1.5 2 1 2 1.4 0 1.3 3.3-.2 4.8-.9.9-.8 1.6.5 3 2.4 2.7 2.2 4.6-.3 3.2-1.1-.6-2-2-2-3.2 0-2-.1-2-1.8-.5-1 1-2.2 1.4-2.5 1-.4-.3-.7-.1-.7.5 0 .7.8 1.2 1.8 1.2s1.9.6 1.9 1.2c0 .7.3 2.8.7 4.5.5 2.1.4 3.3-.3 3.3-.6 0-1.4-1.8-1.7-4-.4-2.2-1-3.7-1.4-3.5-.5.3-1.8-1-2.9-2.9-2.1-3.3-2.3-3.4-7.5-3.1l-5.4.3-.6-3.4c-.5-2.2-1.3-3.4-2.3-3.4-1.5 0-1.5.2 0 1.8 2.1 2.3 2.1 2.9.3 4.7-1.2 1.2-1.6 1.2-2.6 0-1.6-1.9-3.4-1.9-5.1.1-1.2 1.4-1.4 1.4-2.1-.5-1.1-3-3.6-1.6-4.1 2.2-.3 2.6-.4 2.4-.5-1.1-.2-3.9-.4-4.2-1.7-2.8-.8.8-1.5 2.1-1.5 2.8-.1.8-.5.7-1.5-.5-1.3-1.8-1.4-1.7-1.8 1-.4 2.8-.4 2.8-.6-.4-.1-3.5-1.6-5.1-2.5-2.8-.7 1.9-2.6 1.9-2.6 0 0-1.2-.5-1-2 .5-1.2 1.2-2.5 1.8-3 1.5-.6-.4-1 .1-1 .9 0 2.4-2.2 3.1-3.3 1-1-1.7-1.1-1.7-1.8.1-.6 1.6-.8 1.3-.8-1.4-.1-2.3-.5-3.2-1.4-2.8-.7.3-2.1-.1-3.2-.9-1.8-1.4-1.8-1.4.3-1.4 1.3 0 2.2-.6 2.2-1.5 0-.8.5-1.5 1-1.5.6 0 1-.5 1-1 0-.6-.9-1-2.1-1-1.1 0-1.7-.5-1.4-1 .3-.6 1.5-1 2.7-1 1.4 0 1.8-.5 1.4-1.5-.3-.9.2-2.4 1.1-3.5 1.4-1.6 1.9-1.7 3.6-.5 1.1.7 2.5 1.1 3.2.9.7-.3 1.5.2 1.9 1.1.8 2.3 2.6.9 2.6-2.1 0-1.5.6-2.4 1.5-2.4.8 0 1.5-.6 1.5-1.3 0-.8.3-.8.9.2.6.9 3.2 1.5 7.2 1.7zm-32.1 8.8c0 .3-.4.8-1 1.1-.5.3-1 .1-1-.4 0-.6.5-1.1 1-1.1.6 0 1 .2 1 .4zm19.7 13.8c-.3.8-.6.5-.6-.6-.1-1.1.2-1.7.5-1.3.3.3.4 1.2.1 1.9zm3.4 1.1c-1 .9-1.1.8-.5-.6.3-1 .9-1.5 1.2-1.2.3.3 0 1.1-.7 1.8zm7.9-.8c0 .8-.4 1.5-1 1.5-.5 0-.7-.7-.4-1.5.4-.8.8-1.5 1-1.5.2 0 .4.7.4 1.5zm46.2 2.5c.4 2.4.2 2.7-.9 1.9-1.5-1.3-1.8-4.9-.4-4.9.5 0 1.1 1.3 1.3 3zm-51.7 15.9c.3.5.1 1.2-.5 1.6-.5.3-1-.1-1-.9 0-1.8.6-2.1 1.5-.7zm18.5.8c-.1 1-5 4.6-5 3.7 0-.9 3.3-4.3 4.3-4.3.4-.1.7.2.7.6zm-17 4.4c0 1.4-1.7 1-2.3-.5-.4-1-.1-1.3.9-.9.7.3 1.4.9 1.4 1.4zm17.3 1.9c-.3 1.1-.9 2-1.4 2-.5 0-.9-.9-.9-2s.6-2 1.4-2c.9 0 1.2.7.9 2zm15.4 1.2c-.3.8-.6.5-.6-.6-.1-1.1.2-1.7.5-1.3.3.3.4 1.2.1 1.9zm5.3.9c0 .6-.4.7-1 .4-.5-.3-1-1.1-1-1.6 0-.6.5-.7 1-.4.6.3 1 1.1 1 1.6zm-35 .9c0 .5-.5 1-1.1 1-.5 0-.7-.5-.4-1 .3-.6.8-1 1.1-1 .2 0 .4.4.4 1zm-74.3 3.2c-.3.8-.6.5-.6-.6-.1-1.1.2-1.7.5-1.3.3.3.4 1.2.1 1.9zm88.3.8c0 .5-.2 1-.4 1-.3 0-.8-.5-1.1-1-.3-.6-.1-1 .4-1 .6 0 1.1.4 1.1 1zm21.5.1c1.1 1.6.1 1.9-1.3.3-.7-.8-.8-1.4-.3-1.4s1.3.5 1.6 1.1zm-90.5 5.3c0 1.1-1.9 1.5-2.5.6-.3-.5.1-1 .9-1 .9 0 1.6.2 1.6.4zm95 3.6c0 .5-.2 1-.4 1-.3 0-.8-.5-1.1-1-.3-.6-.1-1 .4-1 .6 0 1.1.4 1.1 1zm-9.4 17.9c0 1.1-.5 1.7-1.3 1.4-1-.4-1.1-.9-.2-1.9 1.5-1.8 1.5-1.8 1.5.5zm-43.6 1.9c0 2.5-.4 2.9-3 2.9-2.3 0-3-.5-2.8-1.6.2-1.2 4-4 5.6-4.1.1 0 .2 1.3.2 2.8zm5 1.1c0 .6-.4 1.3-1 1.6-.5.3-1-.1-1-.9 0-.9.5-1.6 1-1.6.6 0 1 .4 1 .9zm-6 4.7c0 .6-1 1-2.2.9-3-.3-3-.3-2.3-1.4.8-1.3 4.5-.9 4.5.5zm41.5 3.4c.3.5.1 1-.4 1-.6 0-1.1-.5-1.1-1 0-.6.2-1 .4-1 .3 0 .8.4 1.1 1zm.9 3.5c-.4.8-.2 1.5.4 1.5.5 0 1.3.8 1.6 1.7.6 1.4.3 1.4-1.5-.3-1.2-1.2-1.8-2.7-1.5-3.3 1-1.6 1.6-1.3 1 .4z"/><path d="M152.8 103.7c.7.3 1.6.2 1.9-.1.4-.3-.2-.6-1.3-.5-1.1 0-1.4.3-.6.6zM80 118.5c0 .8.5 1.5 1 1.5.6 0 1-.7 1-1.5s-.4-1.5-1-1.5c-.5 0-1 .7-1 1.5zM64 163c0 .5.4 1 .9 1 .6 0 1.3-.5 1.6-1 .3-.6-.1-1-.9-1-.9 0-1.6.4-1.6 1zM279 177.1c0 .5.5.7 1 .4.6-.3 1-.8 1-1.1 0-.2-.4-.4-1-.4-.5 0-1 .5-1 1.1zM177.1 170.6c0 1.1.3 1.4.6.6.3-.7.2-1.6-.1-1.9-.3-.4-.6.2-.5 1.3zM183 175.3c-5.6 2.6-7.5 4.8-5.3 6.1 1.1.6 2.2 0 4-2 1.7-2 2.6-2.5 3-1.6.3.9.9 1 1.8.2.9-.7 1.6-.6 2.5.5 1 1.2.7 1.7-1.6 2.7l-2.9 1.2 3.8.5c3.4.5 4.1 1.1 5.2 4.3.7 2 2.3 4.9 3.6 6.5 2.2 2.6 2.7 2.7 6.5 1.8 2.3-.6 4.8-1.6 5.8-2.4 1.9-1.6 2.2-4.5.4-3.9-2.2.8-4-1.9-2.8-4.2 1.6-3-1.6-5.6-8.3-6.4-4.7-.6-5.6-1.1-6.1-3.2-.8-3-3.5-3.1-9.6-.1zm16.7 7.9c-.3.8-.6.5-.6-.6-.1-1.1.2-1.7.5-1.3.3.3.4 1.2.1 1.9zM208 181.4c0 .9.5 1.6 1 1.6.6 0 1-.4 1-.9 0-.6-.4-1.3-1-1.6-.5-.3-1 .1-1 .9z"/><path d="M179.4 185.8c.2.9.6 1.6.9 1.4.4-.1 1.6-.2 2.7-.2 2.8 0 1.5-2.5-1.4-2.8-1.8-.1-2.4.3-2.2 1.6zM245.8 186.7c.7.3 1.6.2 1.9-.1.4-.3-.2-.6-1.3-.5-1.1 0-1.4.3-.6.6zM216.8 197.7c.7.3 1.6.2 1.9-.1.4-.3-.2-.6-1.3-.5-1.1 0-1.4.3-.6.6zM203 199c0 .5.5 1 1 1 .6 0 1-.5 1-1 0-.6-.4-1-1-1-.5 0-1 .4-1 1zM209 199.6c0 1 .7 1.4 2.2 1.2 3.2-.5 3.5-2.8.4-2.8-1.7 0-2.6.5-2.6 1.6zM206.6 201.6c-.8 2 .1 3.4 2 3.4 1.8 0 1.8-1.7 0-3.5-1.2-1.2-1.5-1.2-2 .1zM242.3 202.4c-2.7 1.3-4.7 3.1-5.4 4.8-1.3 3.1-1.2 3.5 1.1 3.8 3.2.5 4.1-.2 6.5-5.2 1.4-2.8 2.4-5.2 2.2-5.2-.1-.1-2.1.8-4.4 1.8zM211.5 204.1c-.4.6-.4 1.3-.1 1.6.8.8 3.6-.5 3.6-1.7 0-1.3-2.7-1.3-3.5.1zM235 213.3c0 .7.9 1.3 2 1.4 2.4.2 2.7-1.2.4-2.1-2.2-.8-2.4-.8-2.4.7zM84.7 225.1c.4 1.3.8 1.8 1.1 1 .2-.7-.1-1.8-.6-2.3-.8-.8-.9-.4-.5 1.3zM223.5 302c-.3.6.1.7.9.4 1.8-.7 2.1-1.4.7-1.4-.6 0-1.3.4-1.6 1zM263 309.9c0 .5.5 1.3 1 1.6.6.3 1 .2 1-.4 0-.5-.4-1.3-1-1.6-.5-.3-1-.2-1 .4zM214 381c0 .5.5 1 1 1 .6 0 1-.5 1-1 0-.6-.4-1-1-1-.5 0-1 .4-1 1zM177 46c0 .5-.7 1-1.5 1s-1.5.5-1.5 1.1c0 .5.5.7 1 .4.6-.3 2.2-1.3 3.8-2.1 2.5-1.3 2.6-1.4.5-1.4-1.3 0-2.3.4-2.3 1zM183 47.2l-2.2 1.8h3.3c2.6 0 3.1-.3 1.9-1.1-1.2-.8-.8-1 1.5-.8 4.6.2 5.5 0 5.5-1.2 0-.8-.4-.9-1.3 0-.8.6-1.7.8-2.1.4-1.3-1.3-4.4-.9-6.6.9zM246.3 49.4c-1.3 1.3-2.3 3.7-2.3 5.2 0 2.2-.3 2.5-1 1.4-.8-1.2-1-1.2-1.6.3-.3.9-1.1 1.7-1.6 1.7-.6 0-.3-1.2.7-2.6 2-3.1 1.4-4-1.6-2.3-5.4 2.8-7.2 7.1-3.9 9.2 1 .6 1.6 1.6 1.3 2.3-.8 2.1 6.3 3 8.2 1 1.2-1.2 1.3-1.6.3-1.6-.9 0-1-.3-.2-.8.6-.4 1.4-1.7 1.8-3 .4-1.2 1.4-2.2 2.2-2.2.8 0 1.4-.5 1.4-1 0-.6-.6-.9-1.2-.8-.7.2-1.1-.4-1-1.2.4-1.7 1.1-8 .9-8-.1 0-1.2 1.1-2.4 2.4zM243 65.1c0 .5-.4.9-.8.9-.5 0-.9-.7-.9-1.5s.4-1.2.9-.9c.4.3.8.9.8 1.5zM284.2 49c0 1.4.2 1.9.5 1.2.2-.6.2-1.8 0-2.5-.3-.6-.5-.1-.5 1.3zM149.5 48.9c.3.5-.3 1.2-1.2 1.4-1.4.4-1.3.5.5.6 1.3.1 2.2-.5 2.2-1.4 0-.8-.5-1.5-1.1-1.5-.5 0-.8.4-.4.9zM272 49c0 .5.5 1 1.1 1 .5 0 .7-.5.4-1-.3-.6-.8-1-1.1-1-.2 0-.4.4-.4 1zM132.8 50.4c-1.5.8-2.9 1.2-3.1.9-1-1-12.4 2.9-12.4 4.2 0 2.2 7 2.9 10.6 1.1 1.6-.9 3.8-1.6 4.8-1.6s2.5-.5 3.3-1.1c1.2-.8 1-.9-.7-.4-2.7.8-2.9-.2-.6-2.7 1.9-2.2 1.6-2.2-1.9-.4zM309.1 50.6c0 1.1.3 1.4.6.6.3-.7.2-1.6-.1-1.9-.3-.4-.6.2-.5 1.3zM153.2 53c0 1.4.2 1.9.5 1.2.2-.6.2-1.8 0-2.5-.3-.6-.5-.1-.5 1.3zM225.5 53.5c-2.2 1.4-3.7 2.5-3.4 2.5 1.6 0 7.5-2.5 8.7-3.7 2.3-2.2-.8-1.5-5.3 1.2zM261.3 52.3c-.4.8-1.8 1.9-3.1 2.6-1.2.7-2 1.7-1.6 2.3.4.5.9.6 1.3.2.7-1.1 3.4-1.2 4.1-.2.3.3 1.4 0 2.5-.8 1.5-1.1 1.7-1.8.9-3.1-1.4-2.3-3.1-2.7-4.1-1zM156.5 56.1c-.4.6-.5 1.2-.2 1.5.2.3.7-.2 1-1.1.7-1.7.1-2-.8-.4zM130.8 56.7c.6.2 1.8.2 2.5 0 .6-.3.1-.5-1.3-.5-1.4 0-1.9.2-1.2.5zM214.8 56.7c.6.2 1 .9.7 1.4-.4.5.1.6 1 .2 1.3-.5 1.4-.7.3-1.4-.7-.5-1.7-.8-2.3-.8-.5 0-.4.3.3.6zM112.5 58.3c-1 .8-1.5 1.9-1.1 2.6.4.6 0 1.4-.8 1.7-2.4.9-2 4.4.5 4.4 1.1 0 1.7-.5 1.4-1-.3-.6-.2-1 .4-1 .5 0 1.3.5 1.7 1.2.5.8 1 .6 1.5-.8.7-1.7.8-1.7.8-.2.1 1.1.8 1.8 1.9 1.7.9 0 1.2-.3.5-.5-.7-.3-.9-1.2-.6-2 .3-.7.9-1.1 1.4-.8.5.3.9-.2.9-1 0-.9.6-1.6 1.3-1.7 1 0-5.8-3.6-7.4-3.8-.3-.1-1.3.5-2.4 1.2zM205.1 57.9c-1.5 1-.6 3.1 1.2 3 .8 0 .7-.3-.2-.6-1.1-.4-1.1-.7 0-1.4.7-.4 1.1-1 .8-1.3-.2-.3-1.1-.1-1.8.3zM126 59.1c0 .5.5.7 1 .4.6-.3 1-.8 1-1.1 0-.2-.4-.4-1-.4-.5 0-1 .5-1 1.1zM218.5 59c-1.3.6-1.5.9-.5.9.8 0 2.2-.4 3-.9 1.8-1.2.2-1.2-2.5 0zM252.5 58.9c-.3.5 0 1.3.6 1.7.8.5.9.3.4-.6-.6-.9-.2-1 1.5-.5 1.5.5 2 .4 1.6-.4-.9-1.3-3.3-1.4-4.1-.2zM230.2 60.5c.4.5.3 1.4-.3 2.2-.9 1-.7 1.3 1.1 1.3 2.5 0 2.5-3 0-3.8-.8-.3-1.2-.1-.8.3zM206 64c-2 .6-2.1.8-.5.8 1.1 0 3.1-.4 4.5-.8 2-.6 2.1-.8.5-.8-1.1 0-3.1.4-4.5.8zM254.8 63.7c.7.3 1.6.2 1.9-.1.4-.3-.2-.6-1.3-.5-1.1 0-1.4.3-.6.6zM263.8 63.7c.6.2 1.8.2 2.5 0 .6-.3.1-.5-1.3-.5-1.4 0-1.9.2-1.2.5zM308.5 64c.3.5.8 1 1.1 1 .2 0 .4-.5.4-1 0-.6-.5-1-1.1-1-.5 0-.7.4-.4 1zM121 65.4c0 .2.7.6 1.5 1 .8.3 1.5.1 1.5-.4 0-.6-.7-1-1.5-1s-1.5.2-1.5.4zM105.5 67c-.3.5-.2 1 .4 1 .5 0 1.3-.5 1.6-1 .3-.6.2-1-.4-1-.5 0-1.3.4-1.6 1zM91.5 68c-.7 1.2.2 1.2 3 0 1.9-.8 1.9-.9-.2-.9-1.2-.1-2.5.3-2.8.9zM120.5 68c-.3.5-1.2.7-2.1.3-.8-.3-1.4-.2-1.3.3.4 2.1-.2 3.5-1.2 2.9-.6-.4-.8-1.3-.5-2.1.4-1-.2-1.3-2-1.2-2.1.2-2.3.4-1 1.4.9.6 1.6 1.5 1.6 1.9 0 .4-.7.2-1.5-.5-.8-.6-1.9-.9-2.5-.5-.5.3-1 .1-1-.4 0-.6-.7-1.1-1.5-1.1s-1.5.4-1.5.8c0 .5-1.2 1.4-2.6 2.1-1.5.6-2.4 1.4-2.1 1.7.3.4 1.9 0 3.4-.8 2.9-1.5 5.3-1.3 5.3.3 0 .4-.7.6-1.5.3-.8-.4-1.5-.1-1.5.5s-.5 1-1.2.8c-.7-.1-1.3.4-1.4 1-.1.7-.2 1.7-.3 2.3 0 .5-.6 1-1.2 1-.8 0-.8-.5.1-1.5 1.8-2.1.1-1.9-4 .6-4.3 2.7-7 5.7-7 7.8 0 1 .7.6 1.8-1.2.9-1.5 2.2-2.5 2.9-2.3.7.3 1-.1.6-1-.3-.7 0-1.4.6-1.4s1.1.4 1.1 1c0 .5.5 1 1.1 1 .6 0 .9-.7.6-1.4-.4-1-.1-1.3.8-1 .7.3 1.6 1.2 1.9 2 .3.8 1.6 1.4 2.8 1.3h2.3l-2.2-.9c-2.6-1-3.1-3-.8-3 1 0 1.2-.6.8-1.8-.7-1.6-.6-1.6 1.1 0 2.1 2.2 3.2 2.3 4 .3.3-.8 1.2-1.2 2.1-.9 1.1.4 1.4.2.9-.9-.3-1 .2-1.8 1.5-2.2 1.2-.3 2.1-1.1 2.1-1.7 0-.5 1-1.8 2.3-2.9 1.2-1 1.9-1.8 1.5-1.9-.4 0-.9.4-1.3 1zM312.6 67.9c-.4.7-.5 1.5-.2 1.8.9.9 1.9-.4 1.4-1.8-.4-1.1-.6-1.1-1.2 0zM271 70c-.8.5-1.2 1.1-.9 1.4.2.3 1.1.1 1.9-.4.8-.5 1.2-1.1.9-1.4-.2-.3-1.1-.1-1.9.4zM184.5 71c-.3.5-.1 1 .4 1 .6 0 1.1-.5 1.1-1 0-.6-.2-1-.4-1-.3 0-.8.4-1.1 1zM187 70.9c0 1.7 1.5 1.9 2.8.5 1.1-1.2.9-1.4-.8-1.4-1.1 0-2 .4-2 .9zM319.8 71.7c-3.1.8-1.9 1.8 2.2 1.8 3.1.1 3.7-.2 2.8-1.2-1.1-1.3-1.9-1.4-5-.6zM191 73c1.9 1.3 3 1.3 3 0 0-.6-1-1-2.2-1-1.9 0-2 .2-.8 1zM199.5 73c.4.6 1.1.8 1.6.5 1.4-.9 1.1-1.5-.7-1.5-.8 0-1.2.5-.9 1z"/><path d="M117.8 73.7c-1 .2-1.8.9-1.8 1.4 0 1.4 1.6 1.1 3-.6.7-.8 1.1-1.4.9-1.4-.2.1-1.2.3-2.1.6zM322.1 78.6c0 1.1.3 1.4.6.6.3-.7.2-1.6-.1-1.9-.3-.4-.6.2-.5 1.3zM329.3 77.7c-1.5.5-1.7 2.3-.4 2.3.5 0 1.1-.7 1.5-1.5.3-.8.4-1.5.3-1.4-.1 0-.8.3-1.4.6zM107.6 79.9c-.3.5.1 1.2 1 1.5 2.2.8 2.5.4.9-1.1-.8-.7-1.6-.9-1.9-.4zM.2 81.2c.3.7 1.5 1.4 2.9 1.6 2.3.2 2.3.2.5-1.3-2.4-1.8-3.9-2-3.4-.3zM87.2 86.5c-.6 1.3-.7 2.7-.3 3 .5.2 1.1-.8 1.4-2.3.7-3.5.3-3.8-1.1-.7zM104 85.4c0 2.2 1.7 2.8 2.4 1 .9-2.2.8-2.4-.9-2.4-.8 0-1.5.6-1.5 1.4zM336 87.1c0 1.1.4 1.8 1 1.4.5-.3.7-1.2.3-2-.7-2.1-1.3-1.9-1.3.6zM199.7 89.4c-.4 1-.1 1.3.8.9.8-.3 1.2-.9.9-1.4-.7-1.2-1.1-1.1-1.7.5zM98.8 96c-1.7 1.3-2.4 2.7-2.3 4.5.2 1.7-.2 2.5-1.1 2.5-.9 0-1.2.5-.9 1.1 1.2 1.8 3.8.5 4.2-2.1.2-1.3.9-2.8 1.6-3.2.6-.4.8-.8.3-.8s-.1-.9.9-2c2.3-2.6.5-2.6-2.7 0zM84.6 101.9c-2 3.7-2 4.6-.2 2.9.8-.7 1.2-1.5 1-1.7-.2-.2.1-1 .8-1.8.6-.7.8-1.6.5-1.9-.3-.3-1.3.8-2.1 2.5zM185 103.5c-1.1 1.3-1 1.4.4.9.9-.3 1.6-1 1.6-1.5 0-1.3-.6-1.1-2 .6zM80.7 103.7c-.4.3-.7 1.1-.7 1.7 0 .6.5.5 1.2-.2.6-.6.9-1.4.7-1.7-.3-.3-.9-.2-1.2.2zM170 104.4c-2.5.7-5.8 2-7.5 2.9-2.6 1.5-2.7 1.7-.8 1.7 1.2 0 2.9.3 3.9.7 1.3.5 1.5.3.9-.7s-.2-1.1 1.7-.7c1.7.5 2.8.1 3.8-1.3.8-1.1 2-2 2.7-2 .7 0 1.3-.5 1.3-1 0-1.2-.3-1.2-6 .4zM177.5 108c.3.5.8 1 1.1 1 .2 0 .4-.5.4-1 0-.6-.5-1-1.1-1-.5 0-.7.4-.4 1zM175 110.8c0 .5.7.9 1.5.9s1.2-.4.9-.9c-.3-.4-.9-.8-1.5-.8-.5 0-.9.4-.9.8zM68.5 123c-.3.5-.1 1 .4 1 .6 0 1.1-.5 1.1-1 0-.6-.2-1-.4-1-.3 0-.8.4-1.1 1zM169.5 123c1.9.8 1.9.9.1.9-1.1.1-1.7.3-1.5.6.3.2 2.3.1 4.5-.2 3.6-.6 3.7-.7 1.4-1.4-1.4-.4-3.4-.7-4.5-.7l-2-.1 2 .9zM353.1 125.6c0 1.1.3 1.4.6.6.3-.7.2-1.6-.1-1.9-.3-.4-.6.2-.5 1.3zM169.3 131.7c.9.2 2.5.2 3.5 0 .9-.3.1-.5-1.8-.5-1.9 0-2.7.2-1.7.5zM144.7 165.3c-1.9 1.5-2.8 7.7-1.2 7.7.6 0 1.5-.3 1.9-.8 1.3-1.2 3.1-.8 3.8.8.5 1.2.7 1.2.7-.3.1-.9.7-1.8 1.4-1.9.6 0-.8-.4-3.3-.8l-4.5-.7 3.8-.1c2.8-.2 3.7-.6 3.7-2s-.2-1.5-1-.2c-.9 1.3-1.4.8-1.2-1.2.2-1.3-2.6-1.6-4.1-.5zm2 1.3c-.3.3-1.2.4-1.9.1-.8-.3-.5-.6.6-.6 1.1-.1 1.7.2 1.3.5zM348.5 188c.3.5.8 1 1.1 1 .2 0 .4-.5.4-1 0-.6-.5-1-1.1-1-.5 0-.7.4-.4 1zM349 192.1c0 .5.5.7 1 .4.6-.3 1-.8 1-1.1 0-.2-.4-.4-1-.4-.5 0-1 .5-1 1.1zM263.5 197c.4.6 1.1.8 1.6.5 1.4-.9 1.1-1.5-.7-1.5-.8 0-1.2.5-.9 1zM61 201c0 .5.5 1 1.1 1 .5 0 .7-.5.4-1-.3-.6-.8-1-1.1-1-.2 0-.4.4-.4 1zM331.5 202c.3.5 1.1 1 1.6 1 .6 0 .7-.5.4-1-.3-.6-1.1-1-1.6-1-.6 0-.7.4-.4 1zM326.6 208.7c-1.7 5-2.2 12.6-.6 8.8.8-1.9.9-1.9.9-.1.1 1.6.4 1.7 1.3.8 1.8-1.8 2.8-1.5 2.9 1 .1 1.7.3 1.8.6.6.2-.9 1-1.5 1.7-1.2.7.3 1.9-.2 2.6-1.1.8-1 .9-1.5.1-1.5-.6 0-1.1-.6-1.1-1.4 0-1 1.6-1.3 6.1-1.4 6.4 0 8-1 7.2-4.3-.6-2.1-5.5-3.4-10.3-2.7-1.8.3-3.5-.1-4.1-.9-.6-.7-2.2-1.3-3.4-1.3-1.9 0-2.6.9-3.9 4.7zm6.4 6.3c0 .5-.5 1-1.1 1-.5 0-.7-.5-.4-1 .3-.6.8-1 1.1-1 .2 0 .4.4.4 1zM333 221.9c0 1.4-.5 1.8-1.9 1.4-1-.2-2.5.3-3.4 1.1-.8.9-2 1.6-2.6 1.6-.6 0-1.1.9-1.1 2 0 1.9.2 1.8 3.1-.7 1.7-1.6 4.1-2.8 5.3-2.8 1.4 0 2.2-.7 2.4-2.3.2-1.2-.1-2.2-.7-2.2s-1.1.9-1.1 1.9zM275.1 223.6c0 1.1.3 1.4.6.6.3-.7.2-1.6-.1-1.9-.3-.4-.6.2-.5 1.3zM287.5 228c-.3.5-.1 1 .4 1 .6 0 1.1-.5 1.1-1 0-.6-.2-1-.4-1-.3 0-.8.4-1.1 1zM331.8 244.7c.7.3 1.6.2 1.9-.1.4-.3-.2-.6-1.3-.5-1.1 0-1.4.3-.6.6zM79.5 257c.3.5.8 1 1.1 1 .2 0 .4-.5.4-1 0-.6-.5-1-1.1-1-.5 0-.7.4-.4 1zM122.8 266.9c-.2 2.9 0 4.5.9 4.8.7.3 1.3 1.3 1.3 2.4 0 1 .9 2.3 2 2.9 1.6.9 2 .8 2-.5 0-.8-.6-1.5-1.4-1.5-1.6 0-2.7-3.6-2-6.5.3-1.1-.2-2.9-.9-3.9-1.4-1.8-1.5-1.7-1.9 2.3zM303.5 271c-.3.5-.1 1 .4 1 .6 0 1.1-.5 1.1-1 0-.6-.2-1-.4-1-.3 0-.8.4-1.1 1zM140 273.5c0 .8.4 1.5 1 1.5.5 0 .7-.7.4-1.5-.4-.8-.8-1.5-1-1.5-.2 0-.4.7-.4 1.5zM100 308c-.8 1.1-2 2-2.8 2-.7 0-1 .4-.7 1 .3.5.2 1-.4 1-.6 0-.8.7-.5 1.5.4.8.1 1.5-.5 1.5s-1.1-.6-1.2-1.3c0-.6-.5.3-1 2-.6 2-1.6 3.3-2.7 3.4-1.4 0-1.4.2.3.9 1.9.8 1.9.9-.2.9-1.2.1-2.5.5-2.8 1.1-.3.6.1.7.9.4.9-.3 1.6-.1 1.6.5s-.4 1.1-1 1.1c-.5 0-1 .8-1.1 1.7 0 1.1-.3 1.3-.6.5-.8-1.9-2.6-1.4-2.1.6.4 1.5.1 1.8-1.7 1.4-1.3-.2-2.5.1-2.9.6-.4.6.2.8 1.4.5 1.1-.3 2 0 2 .6s-.9 1.1-1.9 1.1c-1.1 0-2.3.5-2.7 1.2-.5.7-.2.8.7.3 1.1-.6 1.1-.5.2.5-.6.7-.9 2-.6 2.9.4 1.1.1 1-1-.4-1.6-2-1.6-2-1.1.1.4 1.7-.1 2.3-2.8 3.2l-3.3 1.1 3.4-.5c2.3-.4 3.1-.3 2.7.5-.4.6-1.6 1.1-2.7 1.1-1.2 0-1.7.4-1.4 1.1.4.6 1.3.8 2.1.5.8-.3 1.4-.1 1.4.4 0 .9-1.4 1.4-3.2 1.1-.4 0-.5 1.4-.2 3.2l.5 3.2-1.6-2.8c-2-3.4-2.8-3.5-1.4 0 1.1 2.8.5 3.8-2.6 4.7-1.1.3-.5.4 1.3.2 1.8-.1 3.5.1 3.8.6.3.4-.7.8-2.3.9-2.7 0-2.7.1-.5.9 2.7 1.2 2.9 2 .2 1.3-2.3-.6-2.5 0-1 2.8.6 1 .7 1.9.2 1.9-.5 0-1.4-1.5-2-3.3l-1.2-3.2.6 3.8c.5 3.5.3 3.8-2.6 4.3-4.8 1-4.3 1.9.8 1.7 4.3-.2 4.4-.2 1.4.6-4.1 1.1-5.3 2.1-2.4 2.1 1.6 0 2.2.6 2.1 2.2-.1 1.7-.2 1.9-.6.6-.2-1-1.1-1.8-1.8-1.8-1.1 0-1.2.7-.4 3.2 1.2 4.4 1.2 4.8-.8 4.8-.9 0-3.1.5-4.8 1.2-3 1-3.1 1.2-1.7 2.9 1.1 1.2 2.5 1.7 4.1 1.4 2.4-.5 2.4-.4-.2.6-1.8.7-2.6 1.6-2.3 2.5.3.8.1 1.4-.4 1.4s-1.2-.9-1.5-2.1c-.9-2.7-1.6-2-.9.8.4 1.2 1.3 2.4 2.3 2.6 1.1.3.9.5-.6.6-2.6.1-3.2 2.1-.7 2.1s.7 1.7-2.5 2.3c-2.9.6-3 .7-1.5 3.5 1.4 3 1.4 3 11.5 3.1 6.4.1 9.8-.2 9.5-.8-.6-.9 3-16 3.9-17 1-.9 1.6 5.2 1.2 11.3l-.5 6.6h3.7c3.6 0 3.7-.1 4.7-5.3.6-2.8 2-9.9 3.2-15.7 1.2-5.8 2.8-15.5 3.7-21.5 1.6-10.6 4.5-24.3 8-37.3.9-3.5 1.4-7 1.1-7.8-.3-.8-.1-1.4.3-1.4.5 0 .7-.9.4-2-.3-1.1-.8-2-1.2-2-.4 0-1.3.9-2.1 2zm-19.8 70.7c-.3 1.6-.7 2.2-1 1.5-.4-1.3.4-4.2 1.1-4.2.2 0 .2 1.2-.1 2.7zm-20.2-.3c0 .3-.4.8-1 1.1-.5.3-1 .1-1-.4 0-.6.5-1.1 1-1.1.6 0 1 .2 1 .4zm-5 15.8c0-.6.7-1.2 1.6-1.2 1.4 0 1.4.1 0 1.6-.9.8-1.4 2-1.1 2.5.4.5.1.9-.4.9-.6 0-1.1-.4-1.1-.9s-.3-1.8-.6-2.8c-.5-1.5-.4-1.5.5-.3.7 1 1.1 1.1 1.1.2zM137 341c0 1.1.4 2 .9 2s.7-.9.4-2c-.3-1.1-.7-2-.9-2-.2 0-.4.9-.4 2zM153.7 358.6c-1.1 1.1.3 2.4 1.8 1.8.8-.4 1.2-1 .9-1.5-.6-1.1-1.8-1.2-2.7-.3zM162.8 360.7c.7.3 1.6.2 1.9-.1.4-.3-.2-.6-1.3-.5-1.1 0-1.4.3-.6.6z"/><path d="M61.8 361.7c.7.3 1.6.2 1.9-.1.4-.3-.2-.6-1.3-.5-1.1 0-1.4.3-.6.6zM22.5 368c-.3.6.1.7.9.4 1.8-.7 2.1-1.4.7-1.4-.6 0-1.3.4-1.6 1zM61.6 370.7c.5 2.7.3 3.2-1.7 3.6-1.8.3-1.6.5.9.6 3 .1 3.3-.1 2.6-2.2-1.2-4-2.4-5.4-1.8-2zM309.4 369.2c-.5.7-.2.9.8.5 1.1-.4 1.8.2 2.3 2 .3 1.4.8 2.3 1.1 2.1.7-.8-1.4-5.8-2.5-5.8-.5 0-1.3.5-1.7 1.2zM315 372c0 .5.5 1 1.1 1 .5 0 .7-.5.4-1-.3-.6-.8-1-1.1-1-.2 0-.4.4-.4 1zM276.4 376.1c-.3.6-.2 1.5.3 2s.9.1.9-1.1c0-2.3-.2-2.4-1.2-.9zM281.7 375.9c-1.6.6-1.6.9-.5 1.8.7.6 2.4 1.3 3.8 1.7 2.5.6 2.5.6.2-.6-1.3-.6-2.1-1.7-1.8-2.5.3-.7.4-1.3.3-1.2-.1 0-1 .4-2 .8zM285.5 375.9c-.3.5-.2 1.2.3 1.5.5.3.9-.1.9-.9 0-1.7-.3-1.9-1.2-.6zM269 377c0 .5.5 1 1.1 1 .5 0 .7-.5.4-1-.3-.6-.8-1-1.1-1-.2 0-.4.4-.4 1zM272 376.9c0 .6.4 1.2.8 1.5.5.3.9-.1.9-.9s-.4-1.5-.9-1.5c-.4 0-.8.4-.8.9zM294.6 380.3c1.3 2.3 2.7 4.9 3.1 5.7.4.8 1.7 2.3 3 3.3s2.1 2.2 1.8 2.7c-.3.5.6 1.7 2 2.8 1.7 1.4 2.1 2.2 1.3 2.5-.7.2-.1.8 1.5 1.2 1.8.5 3.3.3 4.4-.6 1.2-1 1.5-1 .9-.1-.4.7-.2 1.2.7 1.2.8 0 1.8-1.1 2.1-2.5.7-2.6 3.6-2.5 3.6.1 0 1.7-1.7 1.8-2.3.1-.4-.7-.6-.6-.6.5-.1 1.2.8 1.6 3.5 1.6 3.2 0 3.4-.1 1.7-1.5-1.7-1.3-1.6-1.4.7-.7 2.1.6 2.3.5 1.3-.7-1-1.2-.7-1.5 1.3-1.7 1.3-.1 2.4.3 2.4 1 0 .6 1 .3 2.1-.8l2.2-1.9-1.7 3.5-1.7 3.5 2.1-2.4c2.3-2.7 5.5-3.7 6.5-2.1.8 1.3 2.5 1.3 2.5-.1 0-.5-.4-.8-.9-.5-.5.4-1.1.2-1.3-.3-.1-.5-1.9-1-3.8-1.2-1.9-.2-4.1-.7-4.7-1.2-.8-.6-1.3-.6-1.3 0 0 .5-1.5.9-3.4.9-1.9-.1-3.2-.4-3-.8.3-.4-.9-.5-2.5-.2-2.6.6-3.1.3-3.7-2-.5-2.3-.9-2.5-2.3-1.4-1.4 1.2-1.5 1.1-.2-.5.7-.9 1-1.7.6-1.7s-.3-.6.3-1.3c.8-1 .5-1.3-1.6-1.2-1.7 0-2.6-.5-2.4-1.3.1-.8-.2-1.1-.8-.7-.6.4-.8 1.5-.5 2.6.4 1.3.2 1.9-.9 1.9-.9 0-1.6.5-1.6 1.1 0 .5-.5.7-1 .4-.6-.4-1-1.2-.9-1.8.3-2.8-.2-3.9-1.6-3.3-1.8.7-2-1-.2-1.8.6-.3.3-.4-.8-.3-1.1.2-1.9.9-1.7 1.5.1.7-.3 1.2-.9 1.2-.6 0-.8-1.2-.5-3.3.4-2.3.4-2.7-.3-1.2l-.9 2-.8-2c-.5-1.1-1.4-2.1-2-2.2-.7-.1-.1 1.7 1.2 4zM357 378.5c0 1 14.6 7.6 17.1 7.8 1.5.1 2.5.5 2.2.9-.2.5.3.8 1.1.8.9 0 1.6.4 1.6 1 0 .5 1.1 1 2.5 1s2.5.4 2.5 1c0 .5.5 1 1.1 1 .5 0 .7-.4.4-1-.3-.5.3-1 1.4-1 1.1 0 2.3-.5 2.6-1.1.4-.5 1.4-.9 2.2-.7 2 .4 2.6 3.8.7 3.8-.8 0-1.4.5-1.4 1.1 0 .5.4.7 1 .4.5-.3.8 0 .5.7-.4 1.2 3.5 3.8 5.7 3.8.4 0 .8-3.6.8-8v-8.1l-3.2.2c-7.1.5-11.8-.1-11.8-1.5 0-1.7-6.7-2.7-9.4-1.4-1 .6-3.1.8-4.7.6-1.5-.3-2.6-.1-2.3.4.3.4-.2.5-1 .2-.9-.3-1.6-1.1-1.6-1.8 0-.6-.5-.4-1 .4-.7 1.2-1.2 1.2-2.2.2-1.2-1.2-4.8-1.7-4.8-.7zM8.1 380.6c0 1.1.3 1.4.6.6.3-.7.2-1.6-.1-1.9-.3-.4-.6.2-.5 1.3zM205.5 380c-.3.5.1 1 .9 1 .9 0 1.6-.5 1.6-1 0-.6-.4-1-.9-1-.6 0-1.3.4-1.6 1z"/><path d="M304.5 381c.2 2.7 1 3.3 1.2 1 .1-1.1-.2-2.2-.6-2.4-.4-.3-.7.4-.6 1.4zM269 381c0 .5.5 1 1.1 1 .5 0 .7-.5.4-1-.3-.6-.8-1-1.1-1-.2 0-.4.4-.4 1zM284.1 382c1.4 3.1 1.9 3.6 1.9 2.4 0-.6-.7-1.9-1.6-3-1.4-1.8-1.4-1.8-.3.6zM386.8 380.7c.7.3 1.6.2 1.9-.1.4-.3-.2-.6-1.3-.5-1.1 0-1.4.3-.6.6zM203.3 382.6c.4.4-.3 1.6-1.6 2.7-2 1.8-2 1.9-.2 1.2 1.1-.4 2.8-1 3.8-1.2 1.4-.4 1.5-.8.6-1.9-.6-.8-1.6-1.4-2.2-1.4-.6 0-.7.3-.4.6zM317.7 384.1c.4 1.3.8 1.8 1.1 1 .2-.7-.1-1.8-.6-2.3-.8-.8-.9-.4-.5 1.3zM260.3 384.7c-1.3.9-2.3 2-2.3 2.6 0 .5.9.2 2.1-.9 1.2-1 2.3-1.8 2.5-1.7.5.4.7-.7.2-1.2-.1-.1-1.3.4-2.5 1.2zM270 384c-.9.6-1 1-.3 1 .6 0 1.5-.5 1.8-1 .8-1.2.4-1.2-1.5 0zM288.9 384.7c-1.3 1.6-1.2 1.7.4.4 1.6-1.3 2.1-2.1 1.3-2.1-.2 0-1 .8-1.7 1.7zM314.7 384.6c-.6.6 1.5 6.4 2.3 6.4.9 0-.1-5.9-1-6.5-.4-.2-1-.2-1.3.1zM321 385.5c0 .8.4 1.5 1 1.5.5 0 .7-.7.4-1.5-.4-.8-.8-1.5-1-1.5-.2 0-.4.7-.4 1.5zM.5 387c.3.5.8 1 1.1 1 .2 0 .4-.5.4-1 0-.6-.5-1-1.1-1-.5 0-.7.4-.4 1zM52 387c-1.3.8-1.3 1 .2 1 .9 0 2-.5 2.3-1 .8-1.3-.5-1.3-2.5 0zM290.7 386.6c.7.3 1 1.1.7 1.9-.3.7-.1 1.6.5 2 .7.3.8 0 .5-.9-.4-1-.1-1.6.7-1.6 1.1 0 1.1-.3-.1-1-.8-.5-1.9-.9-2.5-.9-.5 0-.5.3.2.5zM17.5 388c-.3.5-.1 1 .4 1 .6 0 1.1-.5 1.1-1 0-.6-.2-1-.4-1-.3 0-.8.4-1.1 1zM194 388c0 .5.5 1 1 1 .6 0 1-.5 1-1 0-.6-.4-1-1-1-.5 0-1 .4-1 1zM267 388.4c0 .9.5 1.6 1 1.6.6 0 1-.4 1-.9 0-.6-.4-1.3-1-1.6-.5-.3-1 .1-1 .9zM271.8 387.9c.8.4 1.3 1.1 1.3 1.5-.3 1.8 0 2.4 1.5 3 .8.3 1.2.2.9-.4-.3-.6 0-1 .7-1 .7-.1.3-.9-1.1-2-1.3-1.1-2.8-2-3.5-2-.7 0-.6.4.2.9zM319 387.7c.5.2.8.9.4 1.4-.3.5 0 .9.6.9 1.5 0 .7-2.3-.8-2.6-.7-.1-.8 0-.2.3zM14.6 389.4c.6 1.6.4 1.8-1.2 1.2-1.5-.6-1.7-.5-.6.5.9 1 1.5 1 2.4.1.9-.9.9-1.5-.1-2.5s-1.1-.8-.5.7zM280 388.4c0 .2.7.7 1.6 1 .8.3 1.2.2.9-.4-.6-1-2.5-1.4-2.5-.6zM288.4 389.6c.3.9.6 1.8.6 2 0 .2.5.4 1.1.4.8 0 .9-.4 0-1.3-.6-.8-.8-1.7-.4-2 .3-.4.1-.7-.6-.7-.8 0-1.1.6-.7 1.6zM280 391c1.2.8 1.2 1 .1 1-.8 0-1.1.3-.8.7.4.3 0 1.8-1 3.2-1.3 2-1.3 2.3-.1 1.4.8-.7 1.9-.9 2.3-.5.5.4.5.2.1-.5-.3-.6-.2-1.4.4-1.8.6-.4.8-1.1.5-1.6-.7-1.1.7-1.2 2.1-.2.5.5.1 0-.9-1-1.1-.9-2.4-1.7-3.1-1.7-.6 0-.4.5.4 1zM322.8 390.7c.7.3 1.6.2 1.9-.1.4-.3-.2-.6-1.3-.5-1.1 0-1.4.3-.6.6zM8 393c-1.8 1.2-.2 1.2 2.5 0 1.3-.6 1.5-.9.5-.9-.8 0-2.2.4-3 .9zM296.8 394.2c.5.5 1.6.8 2.3.6.8-.3.3-.7-1-1.1-1.7-.4-2.1-.3-1.3.5zM10.8 394.7c.7.3 1.6.2 1.9-.1.4-.3-.2-.6-1.3-.5-1.1 0-1.4.3-.6.6zM49.6 395.3c.3 1 .9 1.5 1.2 1.2.3-.3 0-1.1-.7-1.8-1-.9-1.1-.8-.5.6zM272 395.5c-.7.9-1.1 1.7-.9 2 .3.2 1-.5 1.7-1.5 1.4-2.4 1-2.6-.8-.5zM275.5 395.4c-2.3 2.5-2.6 4-.4 1.9 1.2-1.2 2.1-2.4 1.8-2.7-.2-.2-.9.1-1.4.8zM291.7 396.7c.8 1.3 2 2.3 2.7 2.2.7 0 .6-.2-.1-.6-2.2-.8-1.4-2.1.9-1.5 1.3.3 1.9.1 1.5-.5-.4-.6-2-1.3-3.6-1.5-2.8-.4-2.9-.4-1.4 1.9zM340.6 394.8c-1 1.6 3.2 2.1 4.5.6.8-1 .8-1.4 0-1.4-.6 0-1.1.5-1.1 1.1 0 .8-.4.8-1.4 0-.8-.7-1.7-.8-2-.3zM348 397c-2.3.7-2.3.8-.3.9 1.2.1 2.5-.4 2.8-.9.3-.6.5-1 .3-.9-.2.1-1.4.5-2.8.9zM288 398c.8.5 2 1 2.5 1 .6 0 .3-.5-.5-1s-1.9-1-2.5-1c-.5 0-.3.5.5 1z"/></svg>